<svg width="31" height="30" viewBox="0 0 31 30" fill="none" xmlns="http://www.w3.org/2000/svg">
<circle cx="15.5" cy="15" r="15" fill="#00ADB5"/>
<path d="M11.8249 17.6673C11.8983 17.3407 11.7649 16.874 11.5316 16.6407L9.91161 15.0207C9.40495 14.514 9.20495 13.974 9.35161 13.5073C9.50495 13.0407 9.97828 12.7207 10.6849 12.6007L12.7649 12.254C13.0649 12.2007 13.4316 11.934 13.5716 11.6607L14.7183 9.36065C15.0516 8.70065 15.5049 8.33398 15.9983 8.33398C16.4916 8.33398 16.9449 8.70065 17.2783 9.36065L18.4249 11.6607C18.5116 11.834 18.6916 12.0007 18.8849 12.114L11.7049 19.294C11.6116 19.3873 11.4516 19.3007 11.4783 19.1673L11.8249 17.6673ZM20.4649 16.642C20.2249 16.882 20.0916 17.342 20.1716 17.6687L20.6316 19.6753C20.8249 20.5087 20.7049 21.1353 20.2916 21.4353C20.1161 21.558 19.9057 21.6211 19.6916 21.6153C19.3516 21.6153 18.9516 21.4887 18.5116 21.2287L16.5583 20.0687C16.2516 19.8887 15.7449 19.8887 15.4383 20.0687L13.4849 21.2287C12.7449 21.662 12.1116 21.7353 11.7049 21.4353C11.5516 21.322 11.4383 21.1687 11.3649 20.9687L19.4716 12.862C19.7783 12.5553 20.2116 12.4153 20.6316 12.4887L21.3049 12.602C22.0116 12.722 22.4849 13.042 22.6383 13.5087C22.7849 13.9753 22.5849 14.5153 22.0783 15.022L20.4649 16.642Z" fill="white"/>
</svg>
