<svg width="30" height="30" viewBox="0 0 30 30" fill="none" xmlns="http://www.w3.org/2000/svg">
<circle cx="15" cy="15" r="15" fill="#635BFF"/>
<path d="M15 22.5C19.1421 22.5 22.5 19.1421 22.5 15C22.5 10.8579 19.1421 7.5 15 7.5C10.8579 7.5 7.5 10.8579 7.5 15C7.5 19.1421 10.8579 22.5 15 22.5Z" fill="white"/>
<path d="M12.8164 12.7495C12.9927 12.2482 13.3408 11.8255 13.7989 11.5563C14.257 11.2871 14.7956 11.1887 15.3193 11.2785C15.843 11.3683 16.318 11.6406 16.6602 12.0471C17.0024 12.4536 17.1897 12.9681 17.1889 13.4995C17.1889 14.9995 14.9389 15.7495 14.9389 15.7495" stroke="#635BFF" stroke-width="1.5" stroke-linecap="round" stroke-linejoin="round"/>
<path d="M15 18.75H15.0075" stroke="#635BFF" stroke-width="1.5" stroke-linecap="round" stroke-linejoin="round"/>
</svg>
