<svg width="30" height="30" viewBox="0 0 30 30" fill="none" xmlns="http://www.w3.org/2000/svg">
<circle cx="15" cy="15" r="15" fill="#FF6F6F"/>
<path d="M15.5 17.6129H15.9333C16.3667 17.6129 16.7267 17.2262 16.7267 16.7596C16.7267 16.1796 16.52 16.0662 16.18 15.9462L15.5067 15.7129V17.6129H15.5Z" fill="white"/>
<path d="M14.9787 8.26564C11.2987 8.27897 8.31874 11.2723 8.33208 14.9523C8.34541 18.6323 11.3387 21.6123 15.0187 21.599C18.6987 21.5856 21.6787 18.5923 21.6654 14.9123C21.6521 11.2323 18.6587 8.25897 14.9787 8.26564ZM16.5054 14.999C17.0254 15.179 17.7254 15.5656 17.7254 16.759C17.7254 17.7856 16.9187 18.6123 15.9321 18.6123H15.4987V18.999C15.4987 19.2723 15.2721 19.499 14.9987 19.499C14.7254 19.499 14.4987 19.2723 14.4987 18.999V18.6123H14.2587C13.1654 18.6123 12.2787 17.6923 12.2787 16.559C12.2787 16.2856 12.5054 16.059 12.7787 16.059C13.0521 16.059 13.2787 16.2856 13.2787 16.559C13.2787 17.139 13.7187 17.6123 14.2587 17.6123H14.4987V15.359L13.4921 14.999C12.9721 14.819 12.2721 14.4323 12.2721 13.239C12.2721 12.2123 13.0787 11.3856 14.0654 11.3856H14.4987V10.999C14.4987 10.7256 14.7254 10.499 14.9987 10.499C15.2721 10.499 15.4987 10.7256 15.4987 10.999V11.3856H15.7387C16.8321 11.3856 17.7187 12.3056 17.7187 13.439C17.7187 13.7123 17.4921 13.939 17.2187 13.939C16.9454 13.939 16.7187 13.7123 16.7187 13.439C16.7187 12.859 16.2787 12.3856 15.7387 12.3856H15.4987V14.639L16.5054 14.999Z" fill="white"/>
<path d="M13.2812 13.2448C13.2812 13.8248 13.4879 13.9381 13.8279 14.0581L14.5013 14.2914V12.3848H14.0679C13.6346 12.3848 13.2812 12.7714 13.2812 13.2448Z" fill="white"/>
</svg>
