<svg width="30" height="30" viewBox="0 0 30 30" fill="none" xmlns="http://www.w3.org/2000/svg">
<circle cx="15" cy="15" r="15" fill="#FFF1F0"/>
<path d="M15.5 17.6129H15.9333C16.3667 17.6129 16.7267 17.2262 16.7267 16.7596C16.7267 16.1796 16.52 16.0662 16.18 15.9462L15.5067 15.7129V17.6129H15.5Z" fill="#FF6F6F"/>
<path d="M14.9802 8.26564C11.3002 8.27897 8.32021 11.2723 8.33354 14.9523C8.34687 18.6323 11.3402 21.6123 15.0202 21.599C18.7002 21.5856 21.6802 18.5923 21.6669 14.9123C21.6535 11.2323 18.6602 8.25897 14.9802 8.26564ZM16.5069 14.999C17.0269 15.179 17.7269 15.5656 17.7269 16.759C17.7269 17.7856 16.9202 18.6123 15.9335 18.6123H15.5002V18.999C15.5002 19.2723 15.2735 19.499 15.0002 19.499C14.7269 19.499 14.5002 19.2723 14.5002 18.999V18.6123H14.2602C13.1669 18.6123 12.2802 17.6923 12.2802 16.559C12.2802 16.2856 12.5069 16.059 12.7802 16.059C13.0535 16.059 13.2802 16.2856 13.2802 16.559C13.2802 17.139 13.7202 17.6123 14.2602 17.6123H14.5002V15.359L13.4935 14.999C12.9735 14.819 12.2735 14.4323 12.2735 13.239C12.2735 12.2123 13.0802 11.3856 14.0669 11.3856H14.5002V10.999C14.5002 10.7256 14.7269 10.499 15.0002 10.499C15.2735 10.499 15.5002 10.7256 15.5002 10.999V11.3856H15.7402C16.8335 11.3856 17.7202 12.3056 17.7202 13.439C17.7202 13.7123 17.4935 13.939 17.2202 13.939C16.9469 13.939 16.7202 13.7123 16.7202 13.439C16.7202 12.859 16.2802 12.3856 15.7402 12.3856H15.5002V14.639L16.5069 14.999Z" fill="#FF6F6F"/>
<path d="M13.2812 13.2448C13.2812 13.8248 13.4879 13.9381 13.8279 14.0581L14.5013 14.2914V12.3848H14.0679C13.6346 12.3848 13.2812 12.7714 13.2812 13.2448Z" fill="#FF6F6F"/>
</svg>
