<svg width="30" height="30" viewBox="0 0 30 30" fill="none" xmlns="http://www.w3.org/2000/svg">
<circle opacity="0.1" cx="15" cy="15" r="15" fill="#1BB492"/>
<path d="M14.9601 8.47387L13.3535 12.2139H11.7468C11.4801 12.2139 11.2201 12.2339 10.9668 12.2872L11.6335 10.6872L11.6601 10.6272L11.7001 10.5205C11.7201 10.4739 11.7335 10.4339 11.7535 10.4005C12.5268 8.60721 13.3935 8.0472 14.9601 8.47387ZM19.4875 12.3925L19.4741 12.3859C19.0741 12.2725 18.6675 12.2125 18.2541 12.2125H14.0808L15.5808 8.72587L15.6008 8.67921C15.6941 8.71254 15.7941 8.75921 15.8941 8.79254L17.3675 9.41254C18.1875 9.75254 18.7608 10.1059 19.1141 10.5325C19.1741 10.6125 19.2275 10.6859 19.2808 10.7725C19.3408 10.8659 19.3875 10.9592 19.4141 11.0592C19.4408 11.1192 19.4608 11.1725 19.4741 11.2325C19.5741 11.5725 19.5808 11.9592 19.4875 12.3925ZM15.3468 18.7712H15.5135C15.7135 18.7712 15.8801 18.5912 15.8801 18.3712C15.8801 18.0912 15.8001 18.0512 15.6268 17.9845L15.3468 17.8845V18.7712Z" fill="#1BB492"/>
<path d="M19.1922 13.3462C18.8922 13.2596 18.5789 13.2129 18.2522 13.2129H11.7455C11.2922 13.2129 10.8655 13.2996 10.4655 13.4729C9.88026 13.7247 9.38152 14.1423 9.03085 14.6742C8.68018 15.2061 8.49292 15.8291 8.49219 16.4662V17.7662C8.49219 17.9262 8.50552 18.0796 8.52552 18.2396C8.67219 20.3596 9.80552 21.4929 11.9255 21.6329C12.0789 21.6529 12.2322 21.6662 12.3989 21.6662H17.5989C20.0655 21.6662 21.3655 20.4929 21.4922 18.1596C21.4989 18.0329 21.5055 17.8996 21.5055 17.7662V16.4662C21.5046 15.7671 21.2793 15.0867 20.8629 14.5251C20.4465 13.9635 19.8609 13.5503 19.1922 13.3462ZM15.8522 17.3329C16.1589 17.4396 16.5722 17.6662 16.5722 18.3729C16.5722 18.9796 16.0989 19.4662 15.5122 19.4662H15.3455V19.6129C15.3455 19.8062 15.1922 19.9596 14.9989 19.9596C14.8055 19.9596 14.6522 19.8062 14.6522 19.6129V19.4662H14.5922C13.9522 19.4662 13.4255 18.9262 13.4255 18.2596C13.4255 18.0662 13.5789 17.9129 13.7722 17.9129C13.9655 17.9129 14.1189 18.0662 14.1189 18.2596C14.1189 18.5396 14.3322 18.7729 14.5922 18.7729H14.6522V17.6462L14.1455 17.4662C13.8389 17.3596 13.4255 17.1329 13.4255 16.4262C13.4255 15.8196 13.8989 15.3329 14.4855 15.3329H14.6522V15.1862C14.6522 14.9929 14.8055 14.8396 14.9989 14.8396C15.1922 14.8396 15.3455 14.9929 15.3455 15.1862V15.3329H15.4055C16.0455 15.3329 16.5722 15.8729 16.5722 16.5396C16.5722 16.7329 16.4189 16.8862 16.2255 16.8862C16.0322 16.8862 15.8789 16.7329 15.8789 16.5396C15.8789 16.2596 15.6655 16.0262 15.4055 16.0262H15.3455V17.1529L15.8522 17.3329Z" fill="#1BB492"/>
<path d="M14.1201 16.4273C14.1201 16.7073 14.2001 16.7473 14.3735 16.814L14.6535 16.914V16.0273H14.4868C14.2801 16.0273 14.1201 16.2073 14.1201 16.4273Z" fill="#1BB492"/>
</svg>
