<svg width="30" height="30" viewBox="0 0 30 30" fill="none" xmlns="http://www.w3.org/2000/svg">
<circle opacity="0.1" cx="15" cy="15" r="15" fill="#EBAD00"/>
<path d="M13 8.33398C11.2533 8.33398 9.83331 9.75398 9.83331 11.5007C9.83331 13.214 11.1733 14.6007 12.92 14.6607C12.9733 14.654 13.0266 14.654 13.0666 14.6607H13.1133C13.9329 14.6333 14.7097 14.2883 15.2795 13.6986C15.8493 13.1089 16.1674 12.3207 16.1666 11.5007C16.1666 9.75398 14.7466 8.33398 13 8.33398ZM16.3866 16.4333C14.5266 15.1933 11.4933 15.1933 9.61997 16.4333C8.77331 17 8.30664 17.7667 8.30664 18.5867C8.30664 19.4067 8.77331 20.1667 9.61331 20.7267C10.5466 21.3533 11.7733 21.6667 13 21.6667C14.2266 21.6667 15.4533 21.3533 16.3866 20.7267C17.2266 20.16 17.6933 19.4 17.6933 18.5733C17.6866 17.7533 17.2266 16.9933 16.3866 16.4333ZM20.3266 11.8927C20.4333 13.186 19.5133 14.3193 18.24 14.4727H18.2066C18.1666 14.4727 18.1266 14.4727 18.0933 14.486C17.4466 14.5193 16.8533 14.3127 16.4066 13.9327C17.0933 13.3193 17.4866 12.3993 17.4066 11.3993C17.3609 10.8793 17.1843 10.3794 16.8933 9.94598C17.2426 9.77604 17.6281 9.69363 18.0163 9.70586C18.4046 9.7181 18.7841 9.82462 19.122 10.0162C19.46 10.2078 19.7462 10.4788 19.9561 10.8057C20.1659 11.1326 20.2931 11.5056 20.3266 11.8927Z" fill="#EBAD00"/>
<path d="M21.6585 18.0609C21.6052 18.7076 21.1919 19.2676 20.4985 19.6476C19.8319 20.0142 18.9919 20.1876 18.1585 20.1676C18.6385 19.7342 18.9185 19.1942 18.9719 18.6209C19.0385 17.7942 18.6452 17.0009 17.8585 16.3676C17.4119 16.0142 16.8919 15.7342 16.3252 15.5276C17.7985 15.1009 19.6519 15.3876 20.7919 16.3076C21.4052 16.8009 21.7185 17.4209 21.6585 18.0609Z" fill="#EBAD00"/>
</svg>
