<svg width="18" height="18" viewBox="0 0 18 18" fill="none" xmlns="http://www.w3.org/2000/svg">
<path d="M15.9565 6.88349C15.739 6.53849 15.5065 6.21599 15.2665 5.91599C15.201 5.83299 15.1187 5.76477 15.0251 5.71581C14.9314 5.66684 14.8284 5.63823 14.7229 5.63186C14.6173 5.62548 14.5117 5.64149 14.4128 5.67882C14.3139 5.71616 14.224 5.77398 14.149 5.84849L11.899 8.09849C12.064 8.59349 12.094 9.16349 11.944 9.75599C11.81 10.2803 11.5373 10.7589 11.1546 11.1416C10.7719 11.5243 10.2933 11.797 9.76899 11.931C9.17649 12.081 8.60649 12.051 8.11149 11.886L6.26649 13.731C5.89149 14.106 6.01149 14.766 6.51399 14.961C7.31649 15.2685 8.14899 15.426 9.00399 15.426C10.339 15.426 11.6365 15.036 12.8215 14.3085C14.029 13.5585 15.1165 12.456 15.994 11.0535C16.7065 9.92099 16.669 8.01599 15.9565 6.88349ZM10.5182 7.48499L7.48824 10.515C7.10574 10.125 6.85824 9.58499 6.85824 8.99999C6.85824 7.82249 7.81824 6.85499 9.00324 6.85499C9.58824 6.85499 10.1282 7.10249 10.5182 7.48499Z" fill="#7C7B7C"/>
<path d="M13.6875 4.31251L11.145 6.85501C10.8645 6.57198 10.5302 6.34789 10.1619 6.19591C9.7935 6.04392 9.39847 5.96712 9 5.97001C7.32 5.97001 5.97 7.32751 5.97 9.00001C5.97 9.84001 6.3075 10.5975 6.855 11.145L4.32 13.6875H4.3125C3.48 13.0125 2.715 12.15 2.0625 11.13C1.3125 9.95251 1.3125 8.04001 2.0625 6.86251C2.9325 5.49751 3.9975 4.42501 5.1825 3.69001C6.3675 2.97001 7.665 2.57251 9 2.57251C10.6725 2.57251 12.2925 3.18751 13.6875 4.31251ZM11.1435 8.99851C11.1435 10.176 10.1835 11.1435 8.9985 11.1435C8.9535 11.1435 8.916 11.1435 8.871 11.1285L11.1285 8.87101C11.1435 8.91601 11.1435 8.95351 11.1435 8.99851Z" fill="#7C7B7C"/>
<path d="M16.3237 1.67174C16.0987 1.44674 15.7313 1.44674 15.5063 1.67174L1.66875 15.5167C1.44375 15.7417 1.44375 16.1092 1.66875 16.3342C1.72214 16.3875 1.78558 16.4295 1.85538 16.458C1.92518 16.4864 1.99994 16.5007 2.07532 16.5C2.1507 16.4993 2.22518 16.4837 2.29444 16.4539C2.3637 16.4242 2.42635 16.3809 2.47875 16.3267L16.3237 2.48174C16.5562 2.25674 16.5562 1.89674 16.3237 1.67174Z" fill="#7C7B7C"/>
</svg>
