<svg width="18" height="18" viewBox="0 0 18 18" fill="none" xmlns="http://www.w3.org/2000/svg">
<path d="M15.9536 6.88349C15.7361 6.53849 15.5036 6.21599 15.2636 5.91599C15.1981 5.83299 15.1158 5.76477 15.0221 5.71581C14.9284 5.66684 14.8255 5.63823 14.7199 5.63186C14.6144 5.62548 14.5087 5.64149 14.4098 5.67882C14.3109 5.71616 14.221 5.77398 14.1461 5.84849L11.8961 8.09849C12.0611 8.59349 12.0911 9.16349 11.9411 9.75599C11.807 10.2803 11.5344 10.7589 11.1517 11.1416C10.769 11.5243 10.2904 11.797 9.76606 11.931C9.17356 12.081 8.60356 12.051 8.10856 11.886L6.26356 13.731C5.88856 14.106 6.00856 14.766 6.51106 14.961C7.31356 15.2685 8.14606 15.426 9.00106 15.426C10.3361 15.426 11.6336 15.036 12.8186 14.3085C14.0261 13.5585 15.1136 12.456 15.9911 11.0535C16.7036 9.92099 16.6661 8.01599 15.9536 6.88349ZM10.5153 7.48499L7.48531 10.515C7.10281 10.125 6.85531 9.58499 6.85531 8.99999C6.85531 7.82249 7.81531 6.85499 9.00031 6.85499C9.58531 6.85499 10.1253 7.10249 10.5153 7.48499Z" fill="#455A64"/>
<path d="M13.6875 4.31251L11.145 6.85501C10.8645 6.57198 10.5302 6.34789 10.1619 6.19591C9.7935 6.04392 9.39847 5.96712 9 5.97001C7.32 5.97001 5.97 7.32751 5.97 9.00001C5.97 9.84001 6.3075 10.5975 6.855 11.145L4.32 13.6875H4.3125C3.48 13.0125 2.715 12.15 2.0625 11.13C1.3125 9.95251 1.3125 8.04001 2.0625 6.86251C2.9325 5.49751 3.9975 4.42501 5.1825 3.69001C6.3675 2.97001 7.665 2.57251 9 2.57251C10.6725 2.57251 12.2925 3.18751 13.6875 4.31251ZM11.1435 8.99851C11.1435 10.176 10.1835 11.1435 8.9985 11.1435C8.9535 11.1435 8.916 11.1435 8.871 11.1285L11.1285 8.87101C11.1435 8.91601 11.1435 8.95351 11.1435 8.99851Z" fill="#455A64"/>
<path d="M16.3267 1.67174C16.1017 1.44674 15.7342 1.44674 15.5092 1.67174L1.67168 15.5167C1.44668 15.7417 1.44668 16.1092 1.67168 16.3342C1.72507 16.3875 1.78851 16.4295 1.85831 16.458C1.92811 16.4864 2.00287 16.5007 2.07825 16.5C2.15363 16.4993 2.22811 16.4837 2.29737 16.4539C2.36663 16.4242 2.42928 16.3809 2.48168 16.3267L16.3267 2.48174C16.5592 2.25674 16.5592 1.89674 16.3267 1.67174Z" fill="#455A64"/>
</svg>
