<svg width="72" height="72" viewBox="0 0 72 72" fill="none" xmlns="http://www.w3.org/2000/svg">
<rect width="72" height="72" rx="4" fill="#E2F8F8" fill-opacity="0.5"/>
<path d="M36.0013 27.3199V47.3199M30.3346 31.3199H27.3346M31.3346 35.3199H27.3346M49.3346 42.3199V26.2266C49.3346 24.6266 48.028 23.4399 46.4413 23.5733H46.3613C43.5613 23.8133 39.308 25.2399 36.9346 26.7333L36.708 26.8799C36.3213 27.1199 35.6813 27.1199 35.2946 26.8799L34.9613 26.6799C32.588 25.1999 28.348 23.7866 25.548 23.5599C23.9613 23.4266 22.668 24.6266 22.668 26.2133V42.3199C22.668 43.5999 23.708 44.7999 24.988 44.9599L25.3746 45.0133C28.268 45.3999 32.7346 46.8666 35.2946 48.2666L35.348 48.2933C35.708 48.4933 36.2813 48.4933 36.628 48.2933C39.188 46.8799 43.668 45.3999 46.5746 45.0133L47.0146 44.9599C48.2946 44.7999 49.3346 43.5999 49.3346 42.3199Z" stroke="white" stroke-width="2" stroke-linecap="round" stroke-linejoin="round"/>
</svg>
