<svg width="56" height="56" viewBox="0 0 56 56" fill="none" xmlns="http://www.w3.org/2000/svg">
<rect x="0.138855" y="0.0419922" width="55.4" height="55.4" rx="3.07778" fill="#CCD6A6" fill-opacity="0.5"/>
<path d="M18.9645 17.4827H28.0953C28.8545 17.4827 29.4803 18.1085 29.4803 18.8677V20.386C29.4803 20.94 29.1315 21.6274 28.7929 21.9762L25.8177 24.6026C25.4073 24.9514 25.1303 25.6388 25.1303 26.1928V29.168C25.1303 29.5783 24.8533 30.1323 24.5045 30.3478L23.5402 30.9736C22.6373 31.5276 21.396 30.9018 21.396 29.7938V26.1312C21.396 25.649 21.119 25.0232 20.842 24.6744L18.2156 21.9044C17.8668 21.5556 17.5898 20.94 17.5898 20.5194V18.9292C17.5795 18.1085 18.2053 17.4827 18.9645 17.4827Z" stroke="black" stroke-width="1.53889" stroke-miterlimit="10" stroke-linecap="round" stroke-linejoin="round"/>
<path d="M17.5795 27.742V30.8198C17.5795 35.9494 19.6314 38.0013 24.761 38.0013H30.9166C36.0462 38.0013 38.098 35.9494 38.098 30.8198V24.6643C38.098 21.4634 37.2978 19.4526 35.4409 18.4061C34.9177 18.1086 33.8712 17.8829 32.9171 17.729M28.8647 28.768H33.9943M26.8129 32.8717H33.9943" stroke="black" stroke-width="1.53889" stroke-linecap="round" stroke-linejoin="round"/>
</svg>
