<svg width="57" height="56" viewBox="0 0 57 56" fill="none" xmlns="http://www.w3.org/2000/svg">
<rect x="0.986023" y="0.459229" width="55.4" height="55.4" rx="3.07778" fill="#E2F8F8"/>
<path d="M28.6861 21.4802V36.8691M24.3259 24.558H22.0176M25.0953 27.6358H22.0176M38.9453 33.0219V20.639C38.9453 19.4079 37.9399 18.4948 36.7191 18.5974H36.6575C34.5031 18.7821 31.2304 19.8798 29.4042 21.0288L29.2298 21.1417C28.9323 21.3264 28.4399 21.3264 28.1423 21.1417L27.8859 20.9878C26.0597 19.849 22.7973 18.7615 20.6428 18.5871C19.422 18.4845 18.4268 19.4079 18.4268 20.6287V33.0219C18.4268 34.0068 19.227 34.9301 20.2119 35.0532L20.5094 35.0943C22.7357 35.3918 26.1726 36.5203 28.1423 37.5975L28.1834 37.6181C28.4604 37.7719 28.9015 37.7719 29.1683 37.6181C31.138 36.5306 34.5852 35.3918 36.8217 35.0943L37.1602 35.0532C38.1451 34.9301 38.9453 34.0068 38.9453 33.0219Z" stroke="black" stroke-width="1.53889" stroke-linecap="round" stroke-linejoin="round"/>
</svg>
