<svg width="72" height="72" viewBox="0 0 72 72" fill="none" xmlns="http://www.w3.org/2000/svg">
<rect width="72" height="72" rx="4" fill="#7FE9DE" fill-opacity="0.4"/>
<path d="M31.3346 45.3332H30.668C25.3346 45.3332 22.668 43.9998 22.668 37.3332V30.6665C22.668 25.3332 25.3346 22.6665 30.668 22.6665H41.3346C46.668 22.6665 49.3346 25.3332 49.3346 30.6665V37.3332C49.3346 42.6665 46.668 45.3332 41.3346 45.3332H40.668C40.2546 45.3332 39.8546 45.5332 39.6013 45.8665L37.6013 48.5332C36.7213 49.7065 35.2813 49.7065 34.4013 48.5332L32.4013 45.8665C32.188 45.5732 31.6946 45.3332 31.3346 45.3332Z" stroke="white" stroke-width="2" stroke-miterlimit="10" stroke-linecap="round" stroke-linejoin="round"/>
<path d="M29.332 30.6665H42.6654M29.332 37.3332H37.332" stroke="white" stroke-width="2" stroke-linecap="round" stroke-linejoin="round"/>
</svg>
