<svg width="56" height="56" viewBox="0 0 56 56" fill="none" xmlns="http://www.w3.org/2000/svg">
<rect x="0.533203" y="0.0422363" width="55.4" height="55.4" rx="3.07778" fill="#A555EC" fill-opacity="0.2"/>
<path d="M37.3742 26.8395C37.3742 31.8562 33.7321 36.555 28.7564 37.9297C28.4178 38.0221 28.0485 38.0221 27.7099 37.9297C22.7342 36.555 19.0922 31.8562 19.0922 26.8395V22.3357C19.0922 21.4944 19.7282 20.5403 20.5182 20.2223L26.2326 17.8831C27.515 17.3599 28.9616 17.3599 30.244 17.8831L35.9584 20.2223C36.7381 20.5403 37.3844 21.4944 37.3844 22.3357L37.3742 26.8395Z" stroke="black" stroke-width="1.53889" stroke-linecap="round" stroke-linejoin="round"/>
<path d="M28.2332 28.2551C28.7774 28.2551 29.2993 28.0389 29.6841 27.6541C30.0689 27.2693 30.285 26.7474 30.285 26.2032C30.285 25.659 30.0689 25.1371 29.6841 24.7523C29.2993 24.3675 28.7774 24.1514 28.2332 24.1514C27.689 24.1514 27.1671 24.3675 26.7823 24.7523C26.3975 25.1371 26.1813 25.659 26.1813 26.2032C26.1813 26.7474 26.3975 27.2693 26.7823 27.6541C27.1671 28.0389 27.689 28.2551 28.2332 28.2551ZM28.2332 28.2551V31.3328" stroke="black" stroke-width="1.53889" stroke-miterlimit="10" stroke-linecap="round" stroke-linejoin="round"/>
</svg>
