<svg width="56" height="57" viewBox="0 0 56 57" fill="none" xmlns="http://www.w3.org/2000/svg">
<rect x="0.533264" y="0.716553" width="55.4" height="55.4" rx="3.07778" fill="#E3C770" fill-opacity="0.4"/>
<path d="M24.1296 22.2609V21.4402C24.1296 19.6243 24.1296 18.1572 27.4125 18.1572H29.054C32.337 18.1572 32.337 19.6243 32.337 21.4402V22.2609M24.1296 38.6757H32.337C36.4612 38.6757 37.1999 37.024 37.4153 35.0132L38.1848 26.8058C38.4618 24.3025 37.7436 22.2609 33.3629 22.2609H23.1036C18.7229 22.2609 18.0048 24.3025 18.2818 26.8058L19.0512 35.0132C19.2667 37.024 20.0054 38.6757 24.1296 38.6757Z" stroke="black" stroke-width="1.53889" stroke-miterlimit="10" stroke-linecap="round" stroke-linejoin="round"/>
<path d="M30.2851 30.4892V29.4427C30.2851 28.4168 30.2851 28.4168 29.2592 28.4168H27.2073C26.1814 28.4168 26.1814 28.4168 26.1814 29.4427V30.4994M30.2851 30.4892C30.2851 31.6074 30.2748 32.5205 28.2332 32.5205C26.2019 32.5205 26.1814 31.6177 26.1814 30.4994M30.2851 30.4892C33.121 30.1361 35.8211 29.0702 38.1334 27.3909M26.1814 30.4994C23.5242 30.2019 20.9184 29.2478 18.61 27.6679" stroke="black" stroke-width="1.53889" stroke-miterlimit="10" stroke-linecap="round" stroke-linejoin="round"/>
</svg>
