<svg width="72" height="72" viewBox="0 0 72 72" fill="none" xmlns="http://www.w3.org/2000/svg">
<rect width="72" height="72" rx="4" fill="#E3C770" fill-opacity="0.4"/>
<path d="M30.6677 27.9998V26.9332C30.6677 24.5732 30.6677 22.6665 34.9344 22.6665H37.0677C41.3344 22.6665 41.3344 24.5732 41.3344 26.9332V27.9998M30.6677 49.3332H41.3344C46.6944 49.3332 47.6544 47.1865 47.9344 44.5732L48.9344 33.9065C49.2944 30.6532 48.3611 27.9998 42.6677 27.9998H29.3344C23.6411 27.9998 22.7077 30.6532 23.0677 33.9065L24.0677 44.5732C24.3477 47.1865 25.3077 49.3332 30.6677 49.3332Z" stroke="white" stroke-width="2" stroke-miterlimit="10" stroke-linecap="round" stroke-linejoin="round"/>
<path d="M38.6655 38.6932V37.3332C38.6655 35.9998 38.6655 35.9998 37.3322 35.9998H34.6655C33.3322 35.9998 33.3322 35.9998 33.3322 37.3332V38.7065M38.6655 38.6932C38.6655 40.1465 38.6522 41.3332 35.9989 41.3332C33.3589 41.3332 33.3322 40.1598 33.3322 38.7065M38.6655 38.6932C42.3511 38.2343 45.8604 36.849 48.8655 34.6665M33.3322 38.7065C29.8789 38.3198 26.4922 37.0798 23.4922 35.0265" stroke="white" stroke-width="2" stroke-miterlimit="10" stroke-linecap="round" stroke-linejoin="round"/>
</svg>
