<svg width="56" height="57" viewBox="0 0 56 57" fill="none" xmlns="http://www.w3.org/2000/svg">
<rect x="0.233215" y="0.716553" width="55.4" height="55.4" rx="3.07778" fill="#A0BCC2" fill-opacity="0.5"/>
<path d="M28.9694 19.1014L35.0223 21.7894C36.7664 22.5588 36.7664 23.831 35.0223 24.6004L28.9694 27.2883C28.282 27.5961 27.1535 27.5961 26.4661 27.2883L20.4132 24.6004C18.6691 23.831 18.6691 22.5588 20.4132 21.7894L26.4661 19.1014C27.1535 18.7937 28.282 18.7937 28.9694 19.1014Z" stroke="black" stroke-width="1.53889" stroke-linecap="round" stroke-linejoin="round"/>
<path d="M18.6999 27.3909C18.6999 28.2526 19.3463 29.2478 20.1362 29.5966L27.1023 32.6949C27.6357 32.9309 28.241 32.9309 28.7643 32.6949L35.7303 29.5966C36.5203 29.2478 37.1666 28.2526 37.1666 27.3909" stroke="black" stroke-width="1.53889" stroke-linecap="round" stroke-linejoin="round"/>
<path d="M18.6999 32.5208C18.6999 33.4749 19.2642 34.3366 20.1362 34.7265L27.1023 37.8248C27.6357 38.0608 28.241 38.0608 28.7643 37.8248L35.7303 34.7265C36.6023 34.3366 37.1666 33.4749 37.1666 32.5208" stroke="black" stroke-width="1.53889" stroke-linecap="round" stroke-linejoin="round"/>
</svg>
