<svg width="72" height="72" viewBox="0 0 72 72" fill="none" xmlns="http://www.w3.org/2000/svg">
<rect width="72" height="72" rx="4" fill="#CCD6A6" fill-opacity="0.5"/>
<path d="M24.4665 22.6665H36.3332C37.3198 22.6665 38.1332 23.4798 38.1332 24.4665V26.4398C38.1332 27.1598 37.6798 28.0532 37.2398 28.5065L33.3732 31.9198C32.8398 32.3732 32.4798 33.2665 32.4798 33.9865V37.8532C32.4798 38.3865 32.1198 39.1065 31.6665 39.3865L30.4132 40.1998C29.2398 40.9198 27.6265 40.1065 27.6265 38.6665V33.9065C27.6265 33.2798 27.2665 32.4665 26.9065 32.0132L23.4932 28.4132C23.0398 27.9598 22.6798 27.1598 22.6798 26.6132V24.5465C22.6665 23.4798 23.4798 22.6665 24.4665 22.6665Z" stroke="white" stroke-width="2" stroke-miterlimit="10" stroke-linecap="round" stroke-linejoin="round"/>
<path d="M22.668 36.0001V40.0001C22.668 46.6668 25.3346 49.3335 32.0013 49.3335H40.0013C46.668 49.3335 49.3346 46.6668 49.3346 40.0001V32.0001C49.3346 27.8401 48.2946 25.2268 45.8813 23.8668C45.2013 23.4801 43.8413 23.1868 42.6013 22.9868M37.3346 37.3335H44.0013M34.668 42.6668H44.0013" stroke="white" stroke-width="2" stroke-linecap="round" stroke-linejoin="round"/>
</svg>
