<svg width="20" height="18" viewBox="0 0 20 18" fill="none" xmlns="http://www.w3.org/2000/svg">
<path d="M17.1658 11.9475C17.0427 11.745 16.6962 11.43 15.8341 11.58C15.3568 11.6625 14.8718 11.7 14.3869 11.6775C13.5219 11.6393 12.6736 11.4324 11.8922 11.0692C11.1107 10.7059 10.412 10.1936 9.8374 9.56253C8.83667 8.47503 8.22084 7.05753 8.21314 5.52753C8.21314 4.67253 8.3825 3.84753 8.7289 3.06753C9.06761 2.31003 8.82898 1.91253 8.65962 1.74753C8.48257 1.57503 8.06688 1.33503 7.2509 1.66503C4.10245 2.95503 2.15488 6.03003 2.38582 9.32253C2.61676 12.42 4.84915 15.0675 7.80515 16.065C8.52179 16.3086 9.27147 16.4476 10.0299 16.4775C10.153 16.485 10.2762 16.4925 10.3994 16.4925C12.9782 16.4925 15.3953 15.3075 16.9195 13.29C17.4352 12.5925 17.2967 12.15 17.1658 11.9475Z" fill="white"/>
</svg>
