<svg width="30" height="30" viewBox="0 0 30 30" fill="none" xmlns="http://www.w3.org/2000/svg">
<circle cx="15" cy="15" r="15" fill="#FF9A6C"/>
<path d="M17.5318 8.47365C17.2585 8.20032 16.7852 8.38699 16.7852 8.76699V11.0937C16.7852 12.067 17.6118 12.8737 18.6185 12.8737C19.2518 12.8803 20.1318 12.8803 20.8852 12.8803C21.2652 12.8803 21.4652 12.4337 21.1985 12.167C20.2385 11.2003 18.5185 9.46032 17.5318 8.47365Z" fill="white"/>
<path d="M20.668 13.794H18.7413C17.1613 13.794 15.8746 12.5073 15.8746 10.9273V9.00065C15.8746 8.63398 15.5746 8.33398 15.208 8.33398H12.3813C10.328 8.33398 8.66797 9.66732 8.66797 12.0473V17.954C8.66797 20.334 10.328 21.6673 12.3813 21.6673H17.6213C19.6746 21.6673 21.3346 20.334 21.3346 17.954V14.4607C21.3346 14.094 21.0346 13.794 20.668 13.794ZM14.668 18.834H12.0013C11.728 18.834 11.5013 18.6073 11.5013 18.334C11.5013 18.0607 11.728 17.834 12.0013 17.834H14.668C14.9413 17.834 15.168 18.0607 15.168 18.334C15.168 18.6073 14.9413 18.834 14.668 18.834ZM16.0013 16.1673H12.0013C11.728 16.1673 11.5013 15.9407 11.5013 15.6673C11.5013 15.394 11.728 15.1673 12.0013 15.1673H16.0013C16.2746 15.1673 16.5013 15.394 16.5013 15.6673C16.5013 15.9407 16.2746 16.1673 16.0013 16.1673Z" fill="white"/>
</svg>
