<svg width="30" height="30" viewBox="0 0 30 30" fill="none" xmlns="http://www.w3.org/2000/svg">
<circle opacity="0.1" cx="15" cy="15" r="15" fill="#FF9A6C"/>
<path d="M17.5333 8.47365C17.26 8.20032 16.7866 8.38699 16.7866 8.76699V11.0937C16.7866 12.067 17.6133 12.8737 18.62 12.8737C19.2533 12.8803 20.1333 12.8803 20.8866 12.8803C21.2666 12.8803 21.4666 12.4337 21.2 12.167C20.24 11.2003 18.52 9.46032 17.5333 8.47365Z" fill="#FF9A6C"/>
<path d="M20.6665 13.794H18.7398C17.1598 13.794 15.8732 12.5073 15.8732 10.9273V9.00065C15.8732 8.63398 15.5732 8.33398 15.2065 8.33398H12.3798C10.3265 8.33398 8.6665 9.66732 8.6665 12.0473V17.954C8.6665 20.334 10.3265 21.6673 12.3798 21.6673H17.6198C19.6732 21.6673 21.3332 20.334 21.3332 17.954V14.4607C21.3332 14.094 21.0332 13.794 20.6665 13.794ZM14.6665 18.834H11.9998C11.7265 18.834 11.4998 18.6073 11.4998 18.334C11.4998 18.0607 11.7265 17.834 11.9998 17.834H14.6665C14.9398 17.834 15.1665 18.0607 15.1665 18.334C15.1665 18.6073 14.9398 18.834 14.6665 18.834ZM15.9998 16.1673H11.9998C11.7265 16.1673 11.4998 15.9407 11.4998 15.6673C11.4998 15.394 11.7265 15.1673 11.9998 15.1673H15.9998C16.2732 15.1673 16.4998 15.394 16.4998 15.6673C16.4998 15.9407 16.2732 16.1673 15.9998 16.1673Z" fill="#FF9A6C"/>
</svg>
