<svg width="31" height="30" viewBox="0 0 31 30" fill="none" xmlns="http://www.w3.org/2000/svg">
<circle opacity="0.1" cx="15.5" cy="15" r="15" fill="#00ADB5"/>
<path d="M11.8269 17.6673C11.9002 17.3407 11.7669 16.874 11.5336 16.6407L9.91356 15.0207C9.4069 14.514 9.2069 13.974 9.35356 13.5073C9.5069 13.0407 9.98023 12.7207 10.6869 12.6007L12.7669 12.254C13.0669 12.2007 13.4336 11.934 13.5736 11.6607L14.7202 9.36065C15.0536 8.70065 15.5069 8.33398 16.0002 8.33398C16.4936 8.33398 16.9469 8.70065 17.2802 9.36065L18.4269 11.6607C18.5136 11.834 18.6936 12.0007 18.8869 12.114L11.7069 19.294C11.6136 19.3873 11.4536 19.3007 11.4802 19.1673L11.8269 17.6673ZM20.4669 16.642C20.2269 16.882 20.0936 17.342 20.1736 17.6687L20.6336 19.6753C20.8269 20.5087 20.7069 21.1353 20.2936 21.4353C20.118 21.558 19.9077 21.6211 19.6936 21.6153C19.3536 21.6153 18.9536 21.4887 18.5136 21.2287L16.5602 20.0687C16.2536 19.8887 15.7469 19.8887 15.4402 20.0687L13.4869 21.2287C12.7469 21.662 12.1136 21.7353 11.7069 21.4353C11.5536 21.322 11.4402 21.1687 11.3669 20.9687L19.4736 12.862C19.7802 12.5553 20.2136 12.4153 20.6336 12.4887L21.3069 12.602C22.0136 12.722 22.4869 13.042 22.6402 13.5087C22.7869 13.9753 22.5869 14.5153 22.0802 15.022L20.4669 16.642Z" fill="#00ADB5"/>
</svg>
