<svg width="30" height="30" viewBox="0 0 30 30" fill="none" xmlns="http://www.w3.org/2000/svg">
<circle cx="15" cy="15" r="15" fill="#EBAD00"/>
<path d="M13.0019 8.33398C11.2553 8.33398 9.83526 9.75398 9.83526 11.5007C9.83526 13.214 11.1753 14.6007 12.9219 14.6607C12.9753 14.654 13.0286 14.654 13.0686 14.6607H13.1153C13.9348 14.6333 14.7116 14.2883 15.2815 13.6986C15.8513 13.1089 16.1694 12.3207 16.1686 11.5007C16.1686 9.75398 14.7486 8.33398 13.0019 8.33398ZM16.3886 16.4333C14.5286 15.1933 11.4953 15.1933 9.62193 16.4333C8.77526 17 8.30859 17.7667 8.30859 18.5867C8.30859 19.4067 8.77526 20.1667 9.61526 20.7267C10.5486 21.3533 11.7753 21.6667 13.0019 21.6667C14.2286 21.6667 15.4553 21.3533 16.3886 20.7267C17.2286 20.16 17.6953 19.4 17.6953 18.5733C17.6886 17.7533 17.2286 16.9933 16.3886 16.4333ZM20.3286 11.8927C20.4353 13.186 19.5153 14.3193 18.2419 14.4727H18.2086C18.1686 14.4727 18.1286 14.4727 18.0953 14.486C17.4486 14.5193 16.8553 14.3127 16.4086 13.9327C17.0953 13.3193 17.4886 12.3993 17.4086 11.3993C17.3629 10.8793 17.1863 10.3794 16.8953 9.94598C17.2446 9.77604 17.63 9.69363 18.0183 9.70586C18.4066 9.7181 18.786 9.82462 19.124 10.0162C19.4619 10.2078 19.7482 10.4788 19.958 10.8057C20.1679 11.1326 20.2951 11.5056 20.3286 11.8927Z" fill="white"/>
<path d="M21.6576 18.0609C21.6042 18.7076 21.1909 19.2676 20.4976 19.6476C19.8309 20.0142 18.9909 20.1876 18.1576 20.1676C18.6376 19.7342 18.9176 19.1942 18.9709 18.6209C19.0376 17.7942 18.6442 17.0009 17.8576 16.3676C17.4109 16.0142 16.8909 15.7342 16.3242 15.5276C17.7976 15.1009 19.6509 15.3876 20.7909 16.3076C21.4042 16.8009 21.7176 17.4209 21.6576 18.0609Z" fill="white"/>
</svg>
