<svg width="20" height="21" viewBox="0 0 20 21" fill="none" xmlns="http://www.w3.org/2000/svg">
<path d="M10 0.0351562C4.49 0.0351562 0 4.52516 0 10.0352C0 15.5452 4.49 20.0352 10 20.0352C15.51 20.0352 20 15.5452 20 10.0352C20 4.52516 15.51 0.0351562 10 0.0351562ZM13.36 12.3352C13.65 12.6252 13.65 13.1052 13.36 13.3952C13.21 13.5452 13.02 13.6152 12.83 13.6152C12.64 13.6152 12.45 13.5452 12.3 13.3952L10 11.0952L7.7 13.3952C7.55 13.5452 7.36 13.6152 7.17 13.6152C6.98 13.6152 6.79 13.5452 6.64 13.3952C6.50052 13.254 6.4223 13.0636 6.4223 12.8652C6.4223 12.6667 6.50052 12.4763 6.64 12.3352L8.94 10.0352L6.64 7.73516C6.50052 7.59402 6.4223 7.40359 6.4223 7.20516C6.4223 7.00673 6.50052 6.81629 6.64 6.67516C6.93 6.38516 7.41 6.38516 7.7 6.67516L10 8.97516L12.3 6.67516C12.59 6.38516 13.07 6.38516 13.36 6.67516C13.65 6.96516 13.65 7.44516 13.36 7.73516L11.06 10.0352L13.36 12.3352Z" fill="#FF6F6F"/>
</svg>
