<svg width="23" height="24" viewBox="0 0 23 24" fill="none" xmlns="http://www.w3.org/2000/svg">
<path d="M20.6464 15.5712C20.4958 15.3172 20.0725 14.9221 19.0189 15.1102C18.4356 15.2137 17.843 15.2608 17.2503 15.2325C16.1933 15.1846 15.1566 14.9251 14.2016 14.4694C13.2466 14.0138 12.3927 13.3712 11.6905 12.5796C10.4676 11.2156 9.71496 9.43757 9.70555 7.51846C9.70555 6.44602 9.91251 5.4112 10.3358 4.43283C10.7498 3.48268 10.4581 2.98409 10.2512 2.77713C10.0348 2.56076 9.52681 2.25972 8.52962 2.67365C4.68199 4.29172 2.30192 8.14876 2.58414 12.2786C2.86636 16.1639 5.59451 19.4847 9.20696 20.7359C10.0827 21.0414 10.9989 21.2158 11.9257 21.2533C12.0762 21.2627 12.2267 21.2721 12.3773 21.2721C15.5287 21.2721 18.4827 19.7857 20.3453 17.2551C20.9756 16.3802 20.8063 15.8252 20.6464 15.5712Z" fill="#7C7B7C"/>
</svg>
