<svg width="609" height="561" viewBox="0 0 609 561" fill="none" xmlns="http://www.w3.org/2000/svg">
<path d="M304.49 548.514C444.541 548.514 558.076 532.997 558.076 513.856C558.076 494.715 444.541 479.198 304.49 479.198C164.438 479.198 50.9033 494.715 50.9033 513.856C50.9033 532.997 164.438 548.514 304.49 548.514Z" fill="#3C3C3C"/>
<path d="M0 459.125L76.1223 458.783L152.245 458.654L304.489 458.412L456.734 458.654L532.856 458.783L608.978 459.125L532.856 459.481L456.734 459.595L304.489 459.838L152.245 459.595L76.1223 459.481L0 459.125Z" fill="#263238"/>
<path d="M155.97 217.445H85.0206V406.247H155.97V217.445Z" fill="#529799"/>
<path opacity="0.2" d="M155.97 217.445H85.0206V406.247H155.97V217.445Z" fill="black"/>
<path d="M523.971 217.445H453.022V406.247H523.971V217.445Z" fill="#529799"/>
<path opacity="0.2" d="M523.971 217.445H453.022V406.247H523.971V217.445Z" fill="black"/>
<path d="M453.035 84.5439H155.954V406.247H453.035V84.5439Z" fill="#529799"/>
<path opacity="0.2" d="M453.035 84.5439H155.954V406.247H453.035V84.5439Z" fill="black"/>
<g opacity="0.2">
<path d="M454.75 217.445H453.063V406.232H454.75V217.445Z" fill="black"/>
<path d="M156.799 217.445H155.112V406.232H156.799V217.445Z" fill="black"/>
<path d="M454.779 351.501H155.112V292.892H454.779V351.501ZM156.883 349.69H453.036V294.645H156.883V349.69Z" fill="black"/>
</g>
<g opacity="0.2">
<path d="M174.454 187.777C174.165 187.809 173.898 187.948 173.704 188.168C173.51 188.387 173.402 188.672 173.402 188.967C173.402 189.262 173.51 189.547 173.704 189.766C173.898 189.986 174.165 190.125 174.454 190.158C174.744 190.125 175.011 189.986 175.205 189.766C175.399 189.547 175.507 189.262 175.507 188.967C175.507 188.672 175.399 188.387 175.205 188.168C175.011 187.948 174.744 187.809 174.454 187.777Z" fill="black"/>
<path d="M176.465 333.552C176.175 333.584 175.908 333.723 175.714 333.943C175.52 334.162 175.412 334.447 175.412 334.742C175.412 335.037 175.52 335.322 175.714 335.541C175.908 335.761 176.175 335.9 176.465 335.932C176.754 335.9 177.021 335.761 177.215 335.541C177.409 335.322 177.517 335.037 177.517 334.742C177.517 334.447 177.409 334.162 177.215 333.943C177.021 333.723 176.754 333.584 176.465 333.552Z" fill="black"/>
<path d="M256.763 310.784C256.763 310.655 256.636 310.541 256.58 310.427C256.533 310.348 256.465 310.282 256.385 310.236C256.305 310.19 256.215 310.166 256.123 310.166C256.031 310.166 255.941 310.19 255.861 310.236C255.781 310.282 255.714 310.348 255.666 310.427C255.597 310.541 255.536 310.661 255.484 310.784C254.809 312.195 257.424 312.195 256.763 310.784Z" fill="black"/>
<path d="M139.48 336.545C139.48 336.431 139.367 336.303 139.297 336.189C139.249 336.109 139.182 336.043 139.102 335.998C139.022 335.952 138.932 335.928 138.84 335.928C138.748 335.928 138.658 335.952 138.578 335.998C138.498 336.043 138.431 336.109 138.383 336.189C138.313 336.303 138.257 336.431 138.2 336.545C137.54 337.957 140.154 337.957 139.48 336.545Z" fill="black"/>
<path d="M184.562 195.048C184.323 195.048 184.094 195.144 183.926 195.315C183.757 195.486 183.662 195.718 183.662 195.96C183.662 196.202 183.757 196.434 183.926 196.605C184.094 196.776 184.323 196.872 184.562 196.872C184.8 196.872 185.029 196.776 185.198 196.605C185.367 196.434 185.461 196.202 185.461 195.96C185.461 195.718 185.367 195.486 185.198 195.315C185.029 195.144 184.8 195.048 184.562 195.048Z" fill="black"/>
<path d="M122.02 287.445C121.802 287.473 121.602 287.58 121.457 287.747C121.312 287.914 121.232 288.128 121.232 288.351C121.232 288.573 121.312 288.788 121.457 288.954C121.602 289.121 121.802 289.228 122.02 289.256C122.237 289.228 122.437 289.121 122.582 288.954C122.727 288.788 122.807 288.573 122.807 288.351C122.807 288.128 122.727 287.914 122.582 287.747C122.437 287.58 122.237 287.473 122.02 287.445Z" fill="black"/>
<path d="M239.823 144.265C239.589 144.031 239.274 143.9 238.945 143.9C238.616 143.9 238.3 144.031 238.066 144.265C237.853 144.49 237.702 144.768 237.628 145.071C237.554 145.373 237.56 145.69 237.644 145.99C237.748 146.256 237.928 146.484 238.161 146.645C238.394 146.806 238.67 146.892 238.952 146.892C239.234 146.892 239.509 146.806 239.742 146.645C239.976 146.484 240.156 146.256 240.259 145.99C240.344 145.689 240.348 145.371 240.271 145.068C240.195 144.765 240.04 144.488 239.823 144.265Z" fill="black"/>
<path d="M186.305 326.808C186.071 326.574 185.756 326.443 185.427 326.443C185.098 326.443 184.782 326.574 184.548 326.808C184.335 327.03 184.184 327.305 184.11 327.606C184.036 327.906 184.042 328.221 184.126 328.519C184.232 328.78 184.413 329.004 184.644 329.161C184.876 329.319 185.148 329.403 185.427 329.403C185.706 329.403 185.978 329.319 186.21 329.161C186.441 329.004 186.621 328.78 186.727 328.519C186.815 328.222 186.822 327.906 186.748 327.605C186.674 327.304 186.521 327.028 186.305 326.808Z" fill="black"/>
<path d="M433.13 339.097C433.443 339.097 433.743 338.971 433.965 338.747C434.186 338.522 434.311 338.217 434.311 337.9C434.311 337.582 434.186 337.278 433.965 337.053C433.743 336.828 433.443 336.702 433.13 336.702C432.817 336.702 432.516 336.828 432.295 337.053C432.073 337.278 431.949 337.582 431.949 337.9C431.949 338.217 432.073 338.522 432.295 338.747C432.516 338.971 432.817 339.097 433.13 339.097Z" fill="black"/>
<path d="M361.802 180.05C362.091 180.017 362.358 179.878 362.552 179.659C362.746 179.439 362.854 179.154 362.854 178.859C362.854 178.564 362.746 178.279 362.552 178.06C362.358 177.84 362.091 177.701 361.802 177.669C361.512 177.701 361.245 177.84 361.051 178.06C360.857 178.279 360.749 178.564 360.749 178.859C360.749 179.154 360.857 179.439 361.051 179.659C361.245 179.878 361.512 180.017 361.802 180.05Z" fill="black"/>
<path d="M471.184 327.849C471.184 327.963 471.297 328.091 471.367 328.205C471.414 328.285 471.481 328.351 471.562 328.397C471.642 328.442 471.732 328.466 471.824 328.466C471.916 328.466 472.006 328.442 472.086 328.397C472.166 328.351 472.233 328.285 472.281 328.205C472.351 328.091 472.407 327.963 472.463 327.849C473.18 326.437 470.523 326.437 471.184 327.849Z" fill="black"/>
<path d="M325.954 256.066C326.188 256.301 326.504 256.432 326.833 256.432C327.162 256.432 327.477 256.301 327.712 256.066C327.927 255.843 328.08 255.565 328.154 255.262C328.228 254.959 328.221 254.641 328.133 254.341C328.027 254.08 327.847 253.856 327.616 253.699C327.384 253.541 327.112 253.457 326.833 253.457C326.554 253.457 326.282 253.541 326.05 253.699C325.819 253.856 325.639 254.08 325.533 254.341C325.449 254.641 325.444 254.958 325.518 255.26C325.592 255.563 325.743 255.841 325.954 256.066Z" fill="black"/>
</g>
<g opacity="0.2">
<path d="M156.883 351.501C156.883 351.501 231.698 366.299 304.91 366.299C378.122 366.299 453.022 351.501 453.022 351.501H156.883Z" fill="black"/>
</g>
<path d="M523.957 389.638H85.0206V406.232H523.957V389.638Z" fill="#37474F"/>
<path d="M180.05 406.247L162.014 443.699L143.893 481.351H128.107L133.969 443.699L139.803 406.247H180.05Z" fill="#37474F"/>
<path d="M139.802 406.247H180.063L169.112 428.958H136.273L139.802 406.247Z" fill="#263238"/>
<path d="M474.108 481.351H458.335L440.215 443.699L422.165 406.247H462.426L468.246 443.699L474.108 481.351Z" fill="#37474F"/>
<path d="M465.954 428.958H433.116L422.165 406.247H462.412L465.954 428.958Z" fill="#263238"/>
<path d="M477.819 325.311C476.526 321.362 407.601 228.993 402.892 227.225C402.358 226.983 371.543 249.223 371.543 249.223C370.278 250.948 311.714 238.388 311.714 238.388L311.123 310.042L417.807 307.747C417.807 307.747 432.216 316.301 445.402 323.33C453.513 327.607 460.697 331.313 462.749 331.884C468.119 333.252 479.126 329.232 477.819 325.311Z" fill="#AD6359"/>
<path d="M462.792 331.869C460.726 331.328 453.556 327.678 445.459 323.315C432.287 316.315 417.878 307.704 417.878 307.704L394.135 308.232L356.896 247.427C365.063 248.853 371.15 249.765 371.558 249.223C371.558 249.223 402.344 226.983 402.893 227.225C407.602 228.993 476.527 321.319 477.82 325.297C479.113 329.275 468.12 333.267 462.792 331.869Z" fill="white"/>
<path d="M478.438 325.425C477.032 321.376 407.854 229.078 403.018 227.254C401.191 226.541 386.149 235.993 371.543 249.223L416.261 308.731C416.261 308.731 457.506 330.9 463.016 332.326C468.527 333.751 479.801 329.474 478.438 325.425Z" fill="#529799"/>
<path d="M473.813 326.908C461.836 311.725 414.925 249.337 404.214 233.413C404.129 233.27 404.214 233.213 404.312 233.327C416.514 248.125 462.918 310.898 474.066 326.723C474.291 327.051 474.066 327.264 473.813 326.908Z" fill="#263238"/>
<path d="M455.285 328.861C453.953 327.173 452.979 325.224 452.425 323.136C451.871 321.048 451.749 318.867 452.066 316.729C452.614 312.876 454.602 309.385 457.619 306.977C457.717 306.977 457.843 307.077 457.759 307.162C455.135 310.018 453.495 313.66 453.084 317.542C452.674 321.423 453.515 325.335 455.482 328.69C455.504 328.717 455.515 328.751 455.513 328.786C455.51 328.821 455.494 328.853 455.468 328.875C455.442 328.898 455.408 328.909 455.373 328.907C455.339 328.904 455.307 328.888 455.285 328.861Z" fill="#263238"/>
<path d="M421.419 312.352C416.696 306.222 413.463 297.382 415.571 289.684C415.656 289.384 416.063 289.498 416.12 289.755C417.377 297.333 419.437 304.751 422.263 311.881C422.296 311.991 422.29 312.108 422.248 312.214C422.205 312.32 422.128 312.408 422.029 312.463C421.93 312.518 421.816 312.537 421.705 312.517C421.594 312.497 421.493 312.439 421.419 312.352Z" fill="#263238"/>
<path d="M426.79 315.716C422.067 309.586 418.834 300.747 420.942 293.048C421.027 292.749 421.434 292.863 421.476 293.12C422.747 300.695 424.806 308.112 427.62 315.246C427.666 315.356 427.67 315.479 427.632 315.592C427.594 315.705 427.516 315.8 427.413 315.859C427.31 315.917 427.19 315.935 427.075 315.908C426.96 315.882 426.859 315.814 426.79 315.716Z" fill="#263238"/>
<path d="M432.273 319.081C427.549 312.951 424.316 304.111 426.425 296.413C426.495 296.113 426.917 296.228 426.959 296.484C428.23 304.059 430.289 311.476 433.102 318.611C433.148 318.721 433.153 318.844 433.115 318.957C433.076 319.07 432.998 319.165 432.896 319.223C432.793 319.282 432.672 319.299 432.557 319.273C432.442 319.247 432.341 319.178 432.273 319.081Z" fill="#263238"/>
<path d="M437.698 322.446C432.961 316.315 429.742 307.476 431.85 299.763C431.85 299.478 432.342 299.592 432.384 299.849C433.648 307.425 435.708 314.843 438.528 321.975C438.574 322.085 438.578 322.208 438.54 322.322C438.502 322.435 438.424 322.529 438.321 322.588C438.218 322.646 438.098 322.664 437.983 322.638C437.868 322.611 437.767 322.543 437.698 322.446Z" fill="#263238"/>
<path d="M392.686 248.525C387.485 241.567 398.155 233.37 403.356 240.341C408.558 247.313 397.888 255.496 392.686 248.525Z" fill="#263238"/>
<path d="M418.735 324.213C420.478 317.598 419.325 310.442 419.03 303.712C419.01 303.565 418.957 303.424 418.874 303.302C418.791 303.179 418.681 303.077 418.553 303.005C418.425 302.933 418.281 302.893 418.135 302.887C417.988 302.881 417.842 302.91 417.709 302.971C417.689 302.947 417.664 302.928 417.636 302.915C417.608 302.901 417.578 302.894 417.547 302.894C417.516 302.894 417.486 302.901 417.458 302.915C417.43 302.928 417.405 302.947 417.386 302.971C412.124 307.749 408.193 313.846 405.985 320.649C404.776 324.641 405.24 330.515 410.202 331.67C414.799 332.71 417.709 328.077 418.735 324.213ZM413.885 328.405C406.786 332.91 407.32 322.902 408.332 319.993C409.02 318.131 409.828 316.316 410.75 314.562C412.721 310.961 414.87 307.464 417.189 304.083C417.189 307.405 417.357 310.698 417.428 314.063C417.512 317.955 417.807 325.924 413.885 328.405Z" fill="#263238"/>
<path d="M396.987 283.924C393.375 287.488 395.975 292.763 399.026 295.558C404.374 300.233 410.842 303.4 417.779 304.739C417.809 304.746 417.841 304.745 417.871 304.737C417.901 304.73 417.929 304.715 417.952 304.694C417.975 304.673 417.993 304.647 418.005 304.617C418.016 304.588 418.021 304.556 418.018 304.525C418.165 304.51 418.307 304.46 418.431 304.38C418.556 304.299 418.66 304.19 418.735 304.061C418.811 303.932 418.855 303.786 418.865 303.637C418.874 303.487 418.849 303.337 418.791 303.199C415.628 297.283 412.971 290.539 408.107 285.777C405.267 283.069 400.417 280.559 396.987 283.924ZM412.184 295.215C413.814 298.067 415.29 301.032 417.02 303.841C413.313 302.16 409.696 300.285 406.181 298.224C404.49 297.213 402.874 296.079 401.345 294.83C398.998 292.877 393.445 284.58 401.823 284.722C406.448 284.808 410.244 291.794 412.184 295.215Z" fill="#263238"/>
<path d="M308.481 216.419H260.6C260.6 216.419 210.513 192.011 170.167 201.805C123.918 213.082 117.999 271.991 152.567 292.82C196.371 319.224 391.294 314.105 391.294 314.105L349.122 241.681C349.122 241.681 284.302 227.838 225.527 229.848L308.467 241.254L308.481 216.419Z" fill="#263238"/>
<path d="M351.961 246.4C351.913 246.282 351.885 246.157 351.877 246.03L351.792 245.716C351.792 245.488 351.68 245.26 351.609 245.017C351.473 244.533 351.309 244.057 351.117 243.592C350.949 243.121 350.738 242.665 350.527 242.166C350.297 241.719 350.034 241.29 349.74 240.883C349.74 240.883 349.669 240.883 349.627 240.883C349.604 240.877 349.58 240.877 349.557 240.883C349.557 240.883 349.487 240.883 349.445 240.883C349.412 240.875 349.379 240.875 349.346 240.883C342.219 239.457 293.776 232.5 286.579 231.673C279.381 230.846 272.029 230.148 264.747 229.535C250.215 228.254 235.628 227.721 221.042 227.938C219.636 227.938 218.315 228.009 216.951 228.066C216.656 227.966 216.347 227.909 216.051 227.838C215.349 227.667 214.646 227.496 213.943 227.353C212.635 227.097 211.3 226.897 209.978 226.698C207.167 226.27 204.454 225.971 201.713 225.457C201.679 225.457 201.647 225.471 201.623 225.495C201.599 225.519 201.586 225.552 201.586 225.586C201.586 225.62 201.599 225.652 201.623 225.676C201.647 225.7 201.679 225.714 201.713 225.714C204.524 226.327 207.195 227.14 209.95 227.753C210.752 227.924 211.539 228.109 212.34 228.266C206.998 228.551 201.656 228.964 196.328 229.463C196.3 229.473 196.276 229.491 196.259 229.515C196.241 229.54 196.232 229.569 196.232 229.599C196.232 229.629 196.241 229.658 196.259 229.682C196.276 229.707 196.3 229.725 196.328 229.734C203.582 229.292 210.892 229.235 218.174 229.364C225.456 229.492 232.597 229.649 239.809 230.076C254.401 230.918 268.964 232.243 283.5 233.783C291.654 234.653 341.038 241.967 349.22 242.337H349.318C349.388 242.523 349.459 242.722 349.543 242.907C349.768 243.349 349.993 243.806 350.246 244.233C350.468 244.664 350.712 245.083 350.977 245.488C351.103 245.688 351.23 245.887 351.37 246.087L351.581 246.386C351.664 246.481 351.735 246.587 351.792 246.7C351.778 246.686 352.059 246.571 351.961 246.4Z" fill="#455A64"/>
<path d="M376.098 309.743C373.484 305.466 371.262 301.004 368.873 296.641C366.483 292.278 364.079 287.887 361.675 283.511C356.881 274.786 339.675 245.445 337.974 243.392C337.861 243.264 337.651 243.392 337.693 243.563C338.508 245.83 349.248 265.262 351.75 269.582C356.699 278.25 361.886 286.69 367.017 295.244C368.423 297.682 369.983 300.091 371.473 302.529C372.963 304.967 374.538 307.334 375.887 309.828C375.944 310.042 376.183 309.9 376.098 309.743Z" fill="#455A64"/>
<path d="M337.481 250.692C333.179 249.637 328.779 248.967 324.436 248.125C320.092 247.284 315.72 246.457 311.362 245.645C302.646 244 293.912 242.427 285.158 240.926C267.727 237.96 250.211 235.48 232.597 233.797C222.658 232.828 212.705 232.201 202.738 231.459C202.528 231.459 202.542 231.773 202.738 231.787C220.465 232.6 238.178 235.038 255.736 237.59C273.294 240.142 290.486 242.907 307.749 245.873C312.641 246.709 317.533 247.56 322.425 248.425C327.388 249.294 332.35 250.364 337.341 251.005C337.594 251.005 337.678 250.734 337.481 250.692Z" fill="#455A64"/>
<path d="M387.022 560.989C382.804 560.561 278.412 512.972 275.558 508.595C274.462 506.956 280.408 491.117 288.21 472.198C289.869 468.121 291.626 463.915 293.426 459.652C305.051 431.951 318.041 402.839 318.041 402.839L387.978 434.475L361.437 490.404L355.617 502.693C355.617 502.693 387.556 539.048 390.185 544.18C392.813 549.313 391.225 561.417 387.022 560.989Z" fill="#AD6359"/>
<path d="M387.02 560.989C382.803 560.561 278.411 512.972 275.557 508.596C274.236 506.585 283.289 483.632 293.354 459.652L361.365 490.404L355.545 502.693C355.545 502.693 387.484 539.048 390.113 544.18C392.742 549.313 391.224 561.417 387.02 560.989Z" fill="white"/>
<path d="M387.022 560.989C382.804 560.561 278.412 512.972 275.558 508.595C274.462 506.956 280.408 491.117 288.21 472.198L355.617 502.693C355.617 502.693 387.556 539.048 390.185 544.18C392.813 549.313 391.225 561.417 387.022 560.989Z" fill="#529799"/>
<path d="M387.428 556.07C370.123 547.659 299.511 515.368 281.771 508.396C281.63 508.396 281.588 508.396 281.771 508.496C298.752 517.221 369.603 548.928 387.344 556.37C387.653 556.512 387.765 556.256 387.428 556.07Z" fill="#263238"/>
<path d="M385.082 537.309C383.156 536.373 381.06 535.852 378.926 535.779C376.792 535.705 374.667 536.08 372.683 536.881C369.107 538.293 366.203 541.044 364.572 544.565C364.572 544.679 364.726 544.765 364.782 544.665C366.938 541.422 370.071 538.975 373.713 537.69C377.354 536.405 381.309 536.351 384.983 537.537C385.011 537.542 385.04 537.537 385.065 537.523C385.089 537.51 385.109 537.488 385.12 537.462C385.132 537.436 385.134 537.406 385.127 537.378C385.12 537.351 385.104 537.326 385.082 537.309Z" fill="#263238"/>
<path d="M361.548 507.555C354.589 504.261 345.353 503.064 338.423 506.899C338.156 507.042 338.423 507.426 338.634 507.412C346.199 506.948 353.791 507.307 361.281 508.481C361.398 508.505 361.519 508.483 361.621 508.42C361.723 508.357 361.798 508.258 361.831 508.142C361.865 508.026 361.854 507.901 361.802 507.793C361.749 507.684 361.659 507.599 361.548 507.555Z" fill="#263238"/>
<path d="M366.018 512.16C358.989 508.866 349.824 507.669 342.893 511.504C342.626 511.646 342.893 512.031 343.09 512.017C350.66 511.553 358.257 511.912 365.751 513.086C365.868 513.11 365.99 513.088 366.091 513.025C366.193 512.962 366.268 512.863 366.302 512.747C366.335 512.631 366.325 512.506 366.272 512.397C366.22 512.289 366.129 512.204 366.018 512.16Z" fill="#263238"/>
<path d="M370.475 516.765C363.516 513.471 354.28 512.274 347.35 516.095C347.083 516.251 347.35 516.636 347.546 516.622C355.116 516.158 362.713 516.517 370.207 517.691C370.324 517.715 370.446 517.693 370.548 517.63C370.65 517.567 370.725 517.468 370.758 517.352C370.792 517.236 370.781 517.111 370.729 517.002C370.676 516.894 370.586 516.809 370.475 516.765Z" fill="#263238"/>
<path d="M374.932 521.37C367.974 518.076 358.738 516.879 351.807 520.699C351.54 520.856 351.807 521.241 352.018 521.227C359.583 520.763 367.175 521.122 374.665 522.296C374.782 522.319 374.903 522.298 375.005 522.235C375.107 522.172 375.182 522.073 375.216 521.957C375.249 521.84 375.239 521.716 375.186 521.607C375.134 521.499 375.043 521.414 374.932 521.37Z" fill="#263238"/>
<path d="M293.678 493.569C285.806 490.005 280.337 502.408 288.224 505.972C296.11 509.536 301.564 497.133 293.678 493.569Z" fill="#263238"/>
<path d="M377.589 492.043C375.353 487.453 369.604 488.323 366.047 490.433C360.002 494.145 355.028 499.406 351.624 505.687C351.608 505.715 351.598 505.747 351.596 505.78C351.594 505.812 351.599 505.845 351.611 505.876C351.623 505.906 351.642 505.933 351.667 505.955C351.691 505.976 351.719 505.992 351.751 506.001C351.68 506.571 352.074 507.27 352.763 507.141C359.3 505.915 366.441 505.431 372.443 502.209C375.845 500.327 379.627 496.392 377.589 492.043ZM362.294 503.235C359.089 503.905 355.884 504.433 352.707 505.231C355.43 502.175 358.306 499.262 361.324 496.506C362.8 495.187 364.364 493.972 366.005 492.87C368.564 491.217 378.067 488.422 375.339 496.463C373.779 500.911 366.061 502.422 362.238 503.235H362.294Z" fill="#263238"/>
<path d="M332.998 500.398C338.622 504.119 345.749 505.231 352.159 507.013C352.82 507.198 353.284 506.543 353.256 505.958C353.287 505.954 353.317 505.943 353.343 505.926C353.369 505.908 353.39 505.884 353.405 505.856C353.421 505.828 353.429 505.797 353.43 505.765C353.431 505.733 353.424 505.702 353.41 505.673C350.55 499.117 346.042 493.439 340.337 489.206C336.963 486.811 331.297 485.428 328.697 489.82C326.237 493.968 329.681 498.217 332.998 500.398ZM330.552 494.424C328.514 486.17 337.75 489.791 340.168 491.659C341.709 492.896 343.166 494.239 344.526 495.679C347.299 498.686 349.917 501.836 352.37 505.117C349.277 504.048 346.114 503.249 342.979 502.266C339.254 501.196 331.677 498.972 330.552 494.424Z" fill="#263238"/>
<path d="M294.943 453.151L373.666 489.221C373.666 489.221 467.304 306.963 469.75 251.134C471.831 203.659 439.245 185.339 333.883 216.048L308.073 216.376V234.439C319.403 235.95 349.627 240.769 349.627 240.769C371.613 249.18 378.699 252.659 378.347 253.386C323.438 365.758 294.943 453.151 294.943 453.151Z" fill="#263238"/>
<path d="M391.168 233.398C387.991 237.675 385.053 242.152 382.241 246.714C365.372 239.087 346.942 234.681 328.639 232.386C323.466 231.749 318.269 231.274 313.049 230.96C312.838 230.96 312.852 231.288 313.049 231.303C331.571 232.618 349.875 236.149 367.579 241.824C372.485 243.364 377.279 245.132 382.115 246.885C378.741 252.36 375.55 257.977 372.499 263.622C366.795 274.186 361.661 285.056 357.12 296.185C354.59 302.344 352.13 308.545 349.951 314.847C349.951 315.032 350.19 315.146 350.26 314.975C359.875 293.238 370.367 271.967 381.735 251.162C384.94 245.288 388.286 239.5 391.421 233.584C391.533 233.427 391.28 233.17 391.168 233.398Z" fill="#455A64"/>
<path d="M375.325 469.931C370.729 468.121 366.286 465.854 361.802 463.801L348.293 457.656C339.296 453.579 308.2 440.548 305.627 439.892C305.459 439.892 305.374 440.106 305.501 440.192C307.497 441.518 327.557 450.571 332.098 452.538C341.179 456.487 350.373 460.137 359.496 463.943C362.111 465.013 364.74 466.025 367.369 467.066C369.998 468.106 372.654 469.062 375.227 470.245C375.382 470.259 375.48 469.988 375.325 469.931Z" fill="#455A64"/>
<path d="M390.774 241.624C384.575 253.586 379.289 266.103 373.905 278.464C368.521 290.824 363.32 303.142 358.245 315.531C348.151 340.3 338.752 365.344 330.045 390.664C325.097 404.921 320.472 419.406 315.987 433.862C315.917 434.076 316.241 434.147 316.311 433.947C324.647 408.371 333.672 383.022 343.091 357.845C352.509 332.668 362.49 307.833 373.062 283.183C376.032 276.263 379.045 269.368 382.101 262.496C385.165 255.61 388.356 248.767 391.224 241.81C391.308 241.582 390.929 241.339 390.774 241.624Z" fill="#455A64"/>
<path d="M258.212 214.907C259.941 216.761 369.267 219.298 369.829 218.6C371.32 216.689 357.177 146.318 345.777 119.416C331.199 84.9004 322.891 81.8352 317.985 79.7822C311.715 77.159 300.3 77.772 297.545 78.9411C294.41 80.2384 280.844 95.6784 276.768 108.153C268.6 133.231 256.693 213.282 258.212 214.907Z" fill="#455A64"/>
<path d="M326.896 85.9268H290.276C290.95 85.1284 291.681 84.3728 292.244 83.6885H324.576C325.293 84.3158 326.066 85.0571 326.896 85.9268ZM331.507 91.7721H285.707L284.146 93.9961H332.983C332.477 93.2167 331.985 92.4754 331.507 91.7721ZM336.441 99.8413H280.59C280.168 100.583 279.774 101.267 279.395 102.065H337.692L336.441 99.8413ZM340.588 107.925H276.85L276.766 108.153C276.555 108.78 276.358 109.45 276.148 110.149H341.642C341.291 109.379 340.939 108.652 340.588 107.925ZM344.299 115.994H274.531C274.348 116.707 274.151 117.42 273.969 118.218H345.255L344.299 115.994ZM347.617 124.063H272.577C272.422 124.805 272.254 125.489 272.085 126.302H348.432C348.165 125.532 347.884 124.819 347.617 124.063ZM350.428 132.147H270.862C270.693 132.888 270.539 133.63 270.398 134.371H351.145L350.428 132.147ZM352.917 140.216H269.217C269.077 140.958 268.922 141.642 268.781 142.44H353.563C353.338 141.685 353.127 140.943 352.902 140.216H352.917ZM355.208 148.3H267.685C267.544 149.041 267.418 149.726 267.277 150.524H355.841C355.602 149.783 355.405 149.056 355.194 148.3H355.208ZM357.359 156.369H266.237C266.096 157.111 265.97 157.795 265.843 158.593H357.907C357.724 157.852 357.542 157.111 357.345 156.369H357.359ZM359.397 164.438H264.845L264.466 166.677H359.917C359.734 165.935 359.552 165.18 359.383 164.438H359.397ZM361.323 172.522H263.51C263.397 173.263 263.271 173.948 263.158 174.746H361.815L361.323 172.522ZM363.151 180.591H262.315L261.977 182.815H363.699C363.53 182.074 363.305 181.333 363.136 180.591H363.151ZM364.908 188.661H261.036C260.923 189.416 260.825 190.172 260.712 190.899H365.358L364.908 188.661ZM366.567 196.744H259.911C259.799 197.514 259.7 198.255 259.616 198.968H366.974C366.848 198.241 366.693 197.528 366.552 196.744H366.567ZM368.099 204.813H258.871C258.786 205.598 258.702 206.353 258.632 207.052H368.478C368.352 206.339 368.225 205.583 368.085 204.813H368.099ZM369.505 212.897H258.098C257.993 213.567 258.027 214.251 258.196 214.907C258.399 215.025 258.624 215.098 258.857 215.121H369.715C369.645 214.465 369.547 213.724 369.434 212.897H369.505Z" fill="#263238"/>
<path d="M336.103 89.1774C383.253 125.104 424.02 174.974 420.112 190.771C415.965 207.465 383.379 226.142 354.589 229.948C348.699 230.732 330.466 186.893 336.497 184.883C341.206 183.314 362.602 177.141 365.16 174.176C366.932 172.109 333.742 124.748 322.987 100.041C311.629 74.0795 323.479 79.4971 336.103 89.1774Z" fill="#AD6359"/>
<path d="M348.658 183.5C348.658 183.5 330.664 185.325 318.954 187.092C312.417 188.076 301.368 190.771 296.897 193.722C290.206 198.127 264.986 220.909 270.3 227.225C275.108 232.928 282.376 223.889 282.376 223.889C282.376 223.889 273.519 233.028 280.014 237.219C286.509 241.411 294.887 228.665 294.887 228.665C294.887 228.665 284.822 237.704 292.174 241.496C298.556 244.789 309.718 231.189 309.718 231.189C309.718 231.189 298.12 239.514 304.334 243.535C311.194 247.983 330.453 229.734 330.453 229.734C345.846 231.474 355.335 230.404 366.188 227.325C368.17 226.812 348.658 183.5 348.658 183.5Z" fill="#AD6359"/>
<path d="M292.188 231.744C292.877 230.775 293.594 229.82 294.297 228.893C295.625 226.985 297.061 225.157 298.599 223.419C300.131 221.75 301.733 220.154 303.378 218.6C305.023 217.046 307.047 215.506 308.734 213.824C308.745 213.804 308.76 213.788 308.779 213.776C308.797 213.763 308.818 213.756 308.84 213.753C308.862 213.751 308.884 213.753 308.905 213.761C308.925 213.769 308.944 213.781 308.959 213.798C308.974 213.814 308.985 213.834 308.991 213.855C308.997 213.877 308.998 213.899 308.994 213.921C308.99 213.943 308.981 213.964 308.967 213.982C308.954 213.999 308.937 214.014 308.917 214.023C307.218 215.664 305.613 217.401 304.109 219.227C302.577 220.966 301.073 222.72 299.554 224.474C298.036 226.227 296.504 227.795 294.972 229.463C294.213 230.305 293.566 231.174 292.765 232.03C292.13 232.9 291.425 233.716 290.656 234.467C290.637 234.476 290.616 234.479 290.596 234.476C290.575 234.473 290.556 234.464 290.54 234.451C290.524 234.438 290.512 234.42 290.505 234.401C290.498 234.381 290.497 234.36 290.501 234.339C290.97 233.416 291.536 232.546 292.188 231.744Z" fill="#263238"/>
<path d="M280.59 225.828C282.946 222.206 285.543 218.753 288.364 215.492C291.231 212.251 294.41 209.309 297.853 206.71C297.98 206.624 298.134 206.795 298.036 206.909C295.224 210.16 292.258 213.353 289.348 216.561C287.942 218.129 281.687 225.443 280.914 226.127C280.731 226.298 280.478 226.042 280.59 225.828Z" fill="#263238"/>
<path d="M302.956 237.633C305.236 234.27 307.734 231.064 310.434 228.038C313.464 225.236 316.692 222.663 320.092 220.339C320.218 220.339 320.387 220.425 320.275 220.539C317.252 223.39 314.202 226.127 311.334 229.093C309.928 230.518 304.671 236.649 303.209 237.918C303.082 237.975 302.871 237.789 302.956 237.633Z" fill="#263238"/>
<path d="M388.526 133.373L352.623 156.982C352.623 156.982 325.983 115.153 319.081 95.3363C312.179 75.5195 320.22 75.4767 339.071 89.8332C357.922 104.19 388.526 133.373 388.526 133.373Z" fill="#455A64"/>
<path d="M333.616 85.9268H316.747C316.672 85.1826 316.672 84.4326 316.747 83.6885H330.257C331.198 84.3443 332.407 85.0999 333.616 85.9268ZM341.517 91.7721H317.928C318.125 92.4849 318.35 93.1977 318.617 93.9961H344.314L341.517 91.7721ZM351.357 99.8413H320.81C321.105 100.554 321.428 101.267 321.766 102.065H353.958C353.086 101.31 352.285 100.583 351.343 99.8413H351.357ZM360.706 107.925H324.507L325.604 110.149H363.208L360.706 107.925ZM369.745 115.994H328.598C328.991 116.721 329.385 117.42 329.793 118.218H372.163L369.745 115.994ZM378.559 124.063H332.984L334.235 126.302H380.949L378.559 124.063ZM387.204 132.147H337.581C338.016 132.903 338.438 133.644 338.874 134.371H387.078L388.483 133.416L387.204 132.147ZM342.332 140.216L343.654 142.44H374.777L378.151 140.216H342.332ZM347.21 148.3L348.616 150.524H362.561L365.949 148.3H347.21ZM352.229 156.369L352.636 157.025L353.634 156.369H352.229Z" fill="#263238"/>
<path d="M380.4 128.198C366.707 139.247 353.184 146.732 350.499 148.656C350.372 148.742 350.26 148.528 350.387 148.443C353.114 146.76 367.748 135.84 380.259 127.97C380.4 127.87 380.498 128.098 380.4 128.198Z" fill="#263238"/>
<path d="M354.927 155.414C354.176 155.744 353.448 156.125 352.748 156.555C348.756 149.569 344.454 142.497 340.392 135.54L334.431 125.332C332.379 121.782 330.495 118.076 328.246 114.654C328.24 114.644 328.233 114.635 328.224 114.627C328.215 114.62 328.204 114.614 328.193 114.611C328.182 114.608 328.171 114.607 328.159 114.608C328.148 114.609 328.136 114.613 328.126 114.618C328.116 114.624 328.107 114.632 328.1 114.641C328.093 114.65 328.087 114.66 328.084 114.672C328.081 114.683 328.08 114.695 328.081 114.706C328.082 114.718 328.086 114.729 328.091 114.74C329.555 118.12 331.188 121.422 332.983 124.634C332.618 124.149 332.266 123.636 331.873 123.208C330.987 122.139 330.116 121.07 329.328 119.929C329.202 119.758 328.907 119.929 329.033 120.1C329.792 121.184 330.439 122.31 331.156 123.45C331.873 124.591 332.562 125.674 333.335 126.772C334.108 127.87 334.867 128.825 335.668 129.809C335.754 129.938 335.848 130.062 335.949 130.18C337.046 132.218 338.114 134.257 339.253 136.267C343.245 143.296 352.313 157.453 352.439 157.41C353.353 156.901 354.223 156.314 355.04 155.656C355.096 155.528 355.096 155.385 354.927 155.414Z" fill="#263238"/>
<path d="M277.034 87.7517C238.769 107.911 202.838 132.432 196.09 149.469C191.873 160.19 197.088 179.622 201.348 191.298C203.428 197.001 256.355 174.846 251.955 170.127C241.075 158.465 239.303 153.789 240.498 151.422C241.243 149.911 283.121 113.043 294.873 96.4198C311.265 73.2669 293.777 78.9268 277.034 87.7517Z" fill="#AD6359"/>
<path d="M271.959 222.777C266.955 225.628 261.079 212.526 261.079 212.526C260.895 215.028 259.85 217.385 258.127 219.184C254.95 222.207 248.891 218.472 248.891 218.472C248.159 221.022 246.69 223.292 244.673 224.987C241.342 227.567 234.692 224.702 234.692 224.702C232.747 226.67 230.166 227.86 227.425 228.052C220.086 228.28 213.859 218.828 209.824 212.869C205.79 206.909 199.9 186.137 198.381 182.302L235.929 155.771C235.929 155.771 261.486 177.327 265.24 185.025C268.389 191.512 279.593 218.429 271.959 222.777Z" fill="#AD6359"/>
<path d="M261.162 212.341C259.504 204.657 255.891 197.357 252.475 190.4C252.39 190.243 252.151 190.4 252.236 190.514C255.792 197.429 257.606 205.469 260.895 212.498C260.923 212.512 260.953 212.52 260.984 212.519C261.015 212.518 261.045 212.51 261.071 212.494C261.098 212.478 261.12 212.456 261.136 212.429C261.152 212.403 261.161 212.372 261.162 212.341Z" fill="#263238"/>
<path d="M249.298 218.001C248.735 216.29 247.955 214.661 246.979 213.154C246.037 211.5 245.081 209.86 244.097 208.221C242.115 204.97 240.062 201.763 237.912 198.612C237.813 198.469 237.588 198.612 237.673 198.74C239.641 201.991 241.567 205.27 243.394 208.592C244.308 210.26 245.208 211.942 246.107 213.61C246.845 215.252 247.759 216.806 248.834 218.243C248.873 218.291 248.927 218.324 248.987 218.336C249.046 218.348 249.108 218.34 249.163 218.311C249.217 218.283 249.26 218.237 249.284 218.181C249.309 218.124 249.314 218.061 249.298 218.001Z" fill="#263238"/>
<path d="M234.607 224.616C234.082 223.069 233.303 221.623 232.302 220.339C231.36 218.913 230.446 217.402 229.49 215.934C227.649 212.983 225.821 210.032 224.092 207.023C224.071 207.001 224.043 206.986 224.013 206.981C223.983 206.976 223.952 206.981 223.925 206.996C223.898 207.011 223.876 207.034 223.863 207.062C223.85 207.09 223.847 207.121 223.853 207.152C225.596 210.217 227.297 213.311 229.069 216.361C229.94 217.787 230.812 219.355 231.697 220.852C232.372 222.291 233.296 223.594 234.425 224.702C234.537 224.702 234.636 224.616 234.607 224.616Z" fill="#263238"/>
<path d="M221.758 117.962L249.775 145.834C249.775 145.834 286.621 112.744 297.29 94.7232C307.96 76.7028 300.102 75.0205 278.776 85.2853C257.451 95.5501 221.758 117.962 221.758 117.962Z" fill="#529799"/>
<path d="M221.758 117.962L249.775 145.834C249.775 145.834 286.621 112.744 297.29 94.7232C307.96 76.7028 300.102 75.0205 278.776 85.2853C257.451 95.5501 221.758 117.962 221.758 117.962Z" fill="#455A64"/>
<path d="M301.957 83.6885C301.865 84.4489 301.7 85.1985 301.465 85.9268H277.469L278.776 85.2852C279.957 84.715 281.096 84.1875 282.192 83.6885H301.957ZM266.237 91.772L262.188 93.9961H297.712C298.162 93.2262 298.584 92.4706 298.963 91.772H266.237ZM251.898 99.8413L248.06 102.008H292.215C292.792 101.253 293.34 100.583 293.874 99.7843L251.898 99.8413ZM238.164 107.925L234.495 110.149H285.51C286.157 109.408 286.803 108.723 287.422 107.925H238.164ZM224.921 115.994L221.758 117.962L222.011 118.218H278.13L280.21 115.994H224.921ZM227.888 124.063L230.137 126.302H270.271L272.478 124.063H227.888ZM236.013 132.147L238.248 134.371H262.034L264.353 132.147H236.013ZM244.124 140.216L246.359 142.44H253.487L255.876 140.216H244.124Z" fill="#263238"/>
<path d="M255.595 138.548C242.662 127.4 233.103 115.809 230.882 113.585C230.783 113.471 230.966 113.314 231.065 113.428C233.145 115.738 246.12 127.813 255.806 138.377C255.919 138.506 255.722 138.662 255.595 138.548Z" fill="#263238"/>
<path d="M280.379 101.495C278.973 104.546 277.568 107.583 276.373 110.719C276.373 110.505 276.373 110.306 276.373 110.092C276.524 108.173 276.811 106.267 277.23 104.389C277.23 104.175 276.963 104.076 276.907 104.29C276.485 106.186 276.106 108.11 275.81 109.992C275.656 110.919 275.571 111.846 275.501 112.772C275.507 112.886 275.507 113 275.501 113.114C275.493 113.152 275.493 113.191 275.501 113.228C274.095 117.406 273.28 121.683 272.113 125.903C272.108 125.923 272.106 125.945 272.109 125.966C272.111 125.987 272.118 126.008 272.129 126.026C272.139 126.045 272.153 126.061 272.17 126.074C272.186 126.087 272.205 126.097 272.226 126.102C272.246 126.108 272.267 126.109 272.288 126.107C272.309 126.104 272.329 126.097 272.347 126.087C272.366 126.076 272.382 126.062 272.395 126.045C272.407 126.028 272.417 126.009 272.422 125.988C273.575 121.854 275.234 117.848 276.64 113.813C278.046 109.778 279.254 105.658 280.632 101.595C280.674 101.467 280.435 101.353 280.379 101.495Z" fill="#263238"/>
<path d="M300.089 98.1734C306.246 99.8842 317.253 90.6743 321.738 83.0327C322.047 82.5053 321.443 76.8453 321.035 69.9308C320.796 65.6538 320.627 61.0489 320.782 56.7719C320.782 55.888 294.072 62.3035 294.072 62.3035C295.39 67.7142 296.051 73.268 296.04 78.8413C296.003 79.427 295.918 80.0087 295.787 80.5806C295.779 80.6802 295.779 80.7804 295.787 80.88C295.084 84.1875 294.143 96.5053 300.089 98.1734Z" fill="#AD6359"/>
<path d="M319.15 56.8147C317.66 63.943 312.585 81.3362 298.443 81.0511C297.538 81.0559 296.634 80.9748 295.744 80.8087C295.734 80.7092 295.734 80.6089 295.744 80.5093C295.875 79.9374 295.959 79.3558 295.997 78.77C296.006 73.1921 295.345 67.6337 294.029 62.218C294.029 62.218 313.372 57.6701 319.15 56.8147Z" fill="#263238"/>
<path d="M292.456 41.7738C292.583 48.3462 288.07 53.778 282.377 53.8778C276.683 53.9776 271.974 48.7596 271.848 42.173C271.721 35.5864 276.234 30.1689 281.927 30.0548C287.62 29.9407 292.33 35.1872 292.456 41.7738Z" fill="#529799"/>
<path d="M284.581 55.6221C290.915 55.4988 295.938 49.4638 295.799 42.1425C295.661 34.8213 290.413 28.9862 284.079 29.1096C277.745 29.2329 272.723 35.2679 272.861 42.5892C273 49.9104 278.247 55.7455 284.581 55.6221Z" fill="#C7C7C7"/>
<path d="M319.418 21.2156C323.79 30.1403 323.368 58.112 317.773 65.2831C309.662 75.6762 294.156 79.1549 284.878 68.7617C275.895 58.668 277.09 22.2278 283.557 15.4844C293.06 5.54749 312.923 8.04242 319.418 21.2156Z" fill="#AD6359"/>
<path d="M297.685 45.5233C297.685 45.5233 297.825 45.6089 297.825 45.6944C297.741 47.5763 297.966 49.7433 299.639 50.3849V50.4989C297.586 50.1853 297.319 47.2911 297.685 45.5233Z" fill="#263238"/>
<path d="M299.371 43.5559C302.351 43.3563 302.52 49.4439 299.751 49.6292C296.981 49.8146 296.855 43.7412 299.371 43.5559Z" fill="#263238"/>
<path d="M287.296 45.8798C287.296 45.8798 287.142 45.9796 287.156 46.0508C287.268 47.9327 287.071 50.0998 285.413 50.7841C285.413 50.7841 285.413 50.8981 285.413 50.8839C287.479 50.5275 287.69 47.6476 287.296 45.8798Z" fill="#263238"/>
<path d="M285.582 43.955C282.587 43.8125 282.517 49.9001 285.286 50.0284C288.056 50.1567 288.084 44.0834 285.582 43.955Z" fill="#263238"/>
<path d="M302.001 38.6801C301.18 38.6208 300.363 38.5113 299.555 38.3522C298.677 38.3532 297.823 38.0628 297.123 37.5253C296.937 37.3158 296.824 37.0493 296.804 36.7679C296.784 36.4864 296.856 36.2061 297.011 35.9713C297.385 35.5482 297.863 35.2339 298.397 35.061C298.931 34.8881 299.5 34.8627 300.047 34.9876C301.196 35.0598 302.275 35.569 303.069 36.4133C303.22 36.6212 303.312 36.8665 303.335 37.1232C303.359 37.3799 303.313 37.6382 303.204 37.8708C303.094 38.1034 302.925 38.3015 302.713 38.444C302.501 38.5865 302.255 38.6681 302.001 38.6801Z" fill="#263238"/>
<path d="M282.699 39.6068C283.529 39.4357 284.26 39.1506 285.061 38.9082C285.927 38.7769 286.727 38.3612 287.339 37.7249C287.494 37.4879 287.567 37.2052 287.547 36.9213C287.527 36.6374 287.414 36.3684 287.226 36.1567C286.794 35.7942 286.273 35.5566 285.719 35.4688C285.165 35.381 284.598 35.4462 284.077 35.6577C282.941 35.898 281.937 36.5652 281.266 37.5253C281.144 37.7572 281.088 38.0187 281.104 38.2809C281.119 38.5431 281.206 38.7958 281.354 39.0111C281.503 39.2264 281.707 39.396 281.944 39.5011C282.182 39.6062 282.443 39.6428 282.699 39.6068Z" fill="#263238"/>
<path d="M301.284 62.945C300.848 63.3869 300.412 64.0142 299.751 64.0855C299.06 64.0916 298.375 63.9508 297.741 63.6721C297.741 63.6721 297.615 63.6721 297.657 63.7719C297.934 64.1341 298.302 64.414 298.722 64.582C299.143 64.7501 299.6 64.8002 300.047 64.7271C300.421 64.6142 300.754 64.3915 301.004 64.0871C301.255 63.7828 301.41 63.4102 301.452 63.0163C301.48 62.9022 301.34 62.8737 301.284 62.945Z" fill="#263238"/>
<path d="M299.161 57.3564C298.712 58.1153 298.113 58.7718 297.401 59.2845C296.69 59.7973 295.882 60.1553 295.028 60.336C294.28 60.5002 293.514 60.5578 292.75 60.5071C292.605 60.5219 292.459 60.5219 292.315 60.5071H291.907C291.807 60.4914 291.715 60.4421 291.646 60.3671C291.578 60.2921 291.536 60.1958 291.527 60.0937C291.52 60.0273 291.52 59.9604 291.527 59.8941V59.723C291.457 58.2973 291.527 56.0733 291.527 56.0733C291.021 56.3441 288.392 57.6415 288.407 56.8859C288.603 50.5987 288.814 43.6129 290.318 37.397C290.318 37.3516 290.336 37.3081 290.368 37.276C290.399 37.2439 290.442 37.2259 290.487 37.2259C290.532 37.2259 290.575 37.2439 290.606 37.276C290.638 37.3081 290.656 37.3516 290.656 37.397C290.656 43.4418 289.714 49.4582 289.658 55.5315C290.593 55.0547 291.593 54.7185 292.624 54.5335C292.821 54.5335 292.399 58.8106 292.483 59.4378C293.66 59.5253 294.841 59.3708 295.957 58.9837C297.073 58.5966 298.101 57.9849 298.978 57.1853C299.118 57.0855 299.273 57.1995 299.161 57.3564Z" fill="#263238"/>
<path d="M293.58 59.7373C294.391 60.7517 295.447 61.5372 296.644 62.0183C297.312 62.2336 298.029 62.2336 298.697 62.0183C300.173 61.5764 300.173 60.1935 299.863 59.0244C299.692 58.4 299.452 57.7974 299.146 57.2281C297.605 58.6499 295.653 59.5299 293.58 59.7373Z" fill="#263238"/>
<path d="M296.645 62.0897C297.313 62.3049 298.03 62.3049 298.697 62.0897C300.173 61.6477 300.173 60.2648 299.864 59.0958C299.072 59.1508 298.322 59.477 297.738 60.021C297.153 60.565 296.767 61.2944 296.645 62.0897Z" fill="#FF98B9"/>
<path opacity="0.2" d="M322.356 41.061C320.556 40.7188 316.395 34.4031 314.61 31.8939C312.825 29.3847 312.122 16.126 312.023 13.1321C315.192 15.0641 317.755 17.8668 319.418 21.2156C321.358 25.2075 322.356 33.0059 322.356 41.061Z" fill="#263238"/>
<path d="M289.32 23.4397C290.362 24.6607 291.693 25.5922 293.189 26.146C294.685 26.6998 296.295 26.8577 297.867 26.6047C299.476 26.3432 300.992 25.667 302.27 24.6411C303.547 23.6151 304.543 22.2736 305.163 20.7452C305.163 20.6596 305.332 20.7452 305.304 20.7452C304.786 22.4032 303.831 23.8863 302.543 25.0345C301.254 26.1827 299.682 26.9524 297.994 27.2605C296.322 27.4753 294.623 27.2406 293.069 26.5801C291.515 25.9195 290.159 24.8562 289.137 23.4967C289.025 23.4682 289.222 23.3256 289.32 23.4397Z" fill="#263238"/>
<path d="M298.865 0.00165459C304.278 0.101452 309.254 3.10962 311.264 6.83062C312.374 8.94926 312.745 11.3856 312.319 13.7451C312.319 13.8449 312.108 13.8307 312.122 13.7451C312.219 11.6563 311.762 9.57928 310.798 7.73098C309.833 5.88267 308.397 4.33095 306.639 3.23793C304.717 1.9695 302.53 1.17143 300.252 0.906698C297.973 0.641966 295.665 0.917811 293.509 1.71247C291.41 2.45121 289.634 3.91462 288.491 5.84692C288.392 6.04651 287.985 5.84691 288.069 5.70434C289.503 2.21144 293.945 -0.069629 298.865 0.00165459Z" fill="#263238"/>
<path d="M267.489 12.0914C268.353 9.37222 270.142 7.05294 272.536 5.54752C275.839 3.45178 279.564 3.73692 283.318 4.12185C283.43 4.12185 283.416 4.29293 283.318 4.27867C280.141 3.97928 276.908 3.86523 273.998 5.40496C271.586 6.64878 269.678 8.70552 268.599 11.2217C267.565 13.8047 267.482 16.6795 268.368 19.319C269.254 21.9585 271.048 24.1858 273.421 25.5925C274.808 26.3689 276.336 26.8492 277.912 27.0036C279.489 27.1581 281.08 26.9835 282.587 26.4906C282.699 26.4906 282.784 26.619 282.671 26.676C280.633 27.4346 278.427 27.6016 276.301 27.1583C274.175 26.715 272.212 25.6789 270.635 24.1665C269.057 22.6541 267.927 20.7254 267.372 18.5972C266.816 16.4691 266.856 14.2259 267.489 12.1199V12.0914Z" fill="#263238"/>
<path d="M321.245 26.6617C321.245 26.6617 326.278 16.796 321.934 11.1504C319.46 7.95687 311.391 8.47011 311.391 8.47011C309.201 5.2348 305.833 3.01428 302.028 2.29695C295.253 0.871284 287.254 4.89168 287.254 4.89168C287.254 4.89168 280.801 1.22771 274.827 4.77763C266.491 9.72471 267.672 22.6698 276.148 26.7472C282.109 29.5986 290.108 24.1953 290.108 24.1953C290.881 24.2951 298.851 29.0568 304.77 21.8287C304.77 21.8287 309.676 26.1057 314.02 23.0405C314.712 24.3228 315.777 25.358 317.07 26.0057C318.362 26.6535 319.82 26.8825 321.245 26.6617Z" fill="#263238"/>
<path d="M317.338 44.3115C317.338 44.3115 322.131 34.6027 326.391 36.2137C330.65 37.8247 327.923 51.2688 323.579 53.7067C323.04 54.059 322.436 54.2968 321.803 54.4058C321.17 54.5148 320.522 54.4927 319.898 54.3408C319.274 54.1889 318.687 53.9104 318.172 53.5221C317.657 53.1338 317.225 52.6437 316.902 52.0815L317.338 44.3115Z" fill="#AD6359"/>
<path d="M325.575 40.0487C325.645 40.0487 325.673 40.1342 325.575 40.177C322.525 41.9876 321.259 45.2952 320.514 48.6312C320.656 48.2744 320.872 47.9529 321.147 47.6886C321.423 47.4244 321.752 47.2238 322.111 47.1006C322.47 46.9773 322.851 46.9344 323.229 46.9746C323.606 47.0149 323.97 47.1375 324.296 47.3339C324.394 47.3339 324.296 47.5335 324.296 47.5192C323.707 47.4132 323.1 47.4931 322.557 47.748C322.014 48.003 321.561 48.4207 321.259 48.9449C320.773 49.8494 320.386 50.8057 320.107 51.7962C319.994 52.1241 319.446 52.0386 319.516 51.6822C318.771 47.4764 321.133 41.1322 325.575 40.0487Z" fill="#263238"/>
<path d="M326.531 35.957C326.531 35.957 327.838 21.6148 323.902 13.5883C319.502 4.6493 300.581 -4.24689 287.254 4.89166C287.254 4.89166 308.678 1.5841 318.279 14.073C322.328 19.3337 321.794 36.2137 321.794 36.2137L326.531 35.957Z" fill="#C7C7C7"/>
<path d="M336.022 43.7031C336.281 36.3852 331.359 30.2657 325.028 30.0348C318.697 29.8038 313.354 35.5489 313.094 42.8667C312.835 50.1846 317.757 56.3041 324.088 56.5351C330.419 56.766 335.762 51.021 336.022 43.7031Z" fill="#C7C7C7"/>
<path d="M316.438 42.5721C316.199 49.1445 320.655 54.6476 326.278 54.8472C331.901 55.0468 336.779 49.9001 337.004 43.3277C337.229 36.7554 332.787 31.2523 327.164 31.0385C321.541 30.8246 316.663 35.9998 316.438 42.5721Z" fill="#529799"/>
<path d="M324.942 85.0145C322.053 88.6607 318.965 92.1401 315.692 95.4361C312.529 98.43 308.663 101.139 304.446 101.566C300.229 101.994 296.011 101.167 294.451 95.9779C293.186 91.8577 293.355 87.6092 294.029 82.3057C294.029 82.2641 294.013 82.2242 293.984 82.1948C293.955 82.1654 293.916 82.1489 293.875 82.1489C293.834 82.1489 293.794 82.1654 293.765 82.1948C293.736 82.2242 293.72 82.2641 293.72 82.3057C292.82 89.1204 291.921 99.6846 298.036 101.98C304.896 104.56 311.559 100.925 316.311 96.1062C319.625 92.7944 322.576 89.128 325.111 85.1713C325.111 85.043 324.998 84.9004 324.942 85.0145Z" fill="#263238"/>
<path d="M360.171 241.097H235.156V246.785H360.171V241.097Z" fill="#C7C7C7"/>
<path d="M333.405 241.097L337.693 246.785H235.156V241.097H333.405Z" fill="#A6A6A6"/>
<path d="M328.063 246.785H206.225L196.089 162.87H317.927L328.063 246.785Z" fill="#C7C7C7"/>
<path d="M269.499 204.828C269.518 205.81 269.342 206.786 268.984 207.699C268.625 208.612 268.09 209.442 267.411 210.142C266.731 210.842 265.92 211.397 265.026 211.775C264.131 212.153 263.172 212.345 262.203 212.341C260.228 212.334 258.335 211.544 256.927 210.14C255.519 208.736 254.708 206.83 254.668 204.828C254.643 203.844 254.814 202.866 255.17 201.951C255.525 201.036 256.058 200.203 256.737 199.5C257.417 198.798 258.228 198.242 259.123 197.864C260.019 197.486 260.98 197.294 261.95 197.3C263.927 197.311 265.822 198.103 267.232 199.509C268.642 200.915 269.455 202.823 269.499 204.828Z" fill="white"/>
<path d="M608.459 257.877H478.116V274.814H608.459V257.877Z" fill="#455A64"/>
<path d="M604.776 274.814H481.786V280.103H604.776V274.814Z" fill="#37474F"/>
<path d="M587.218 403.595H499.358V408.884H587.218V403.595Z" fill="#455A64"/>
<path d="M496.504 481.351H489.995V280.103H507.75L496.504 481.351Z" fill="#455A64"/>
<path d="M507.75 280.103L507.089 292.007H489.995V280.103H507.75Z" fill="#263238"/>
<path d="M590.058 481.351H596.58V280.103H578.812L590.058 481.351Z" fill="#455A64"/>
<path d="M578.812 280.103L579.486 292.007H596.566V280.103H578.812Z" fill="#263238"/>
<path d="M582.241 215.649H481.785V233.013H582.241V215.649Z" fill="#455A64"/>
<path d="M574.398 215.649H565.035V233.013H574.398V215.649Z" fill="#EBEBEB"/>
<path d="M498.992 215.649H489.63V233.013H498.992V215.649Z" fill="#EBEBEB"/>
<path d="M597.128 233.013H486.888V257.891H597.128V233.013Z" fill="#263238"/>
<path d="M546.056 255.296H597.1V235.579H546.056V255.296Z" fill="white"/>
<path d="M597.115 239.643C590.255 239.5 571.586 239.258 571.586 239.258L566.638 239.343C559.778 239.4 552.922 239.5 546.071 239.643C552.931 239.785 559.787 239.88 566.638 239.928L571.586 240.013C571.586 240.013 590.255 239.771 597.115 239.643Z" fill="#F2F0F0"/>
<path d="M597.115 243.506C590.255 243.364 571.586 243.121 571.586 243.121L566.638 243.207C559.778 243.264 552.922 243.364 546.071 243.506C552.931 243.649 559.787 243.744 566.638 243.791L571.586 243.891C571.586 243.891 590.255 243.649 597.115 243.506Z" fill="#F2F0F0"/>
<path d="M597.115 247.427C590.255 247.284 571.586 247.056 571.586 247.056L566.638 247.142C559.778 247.142 552.922 247.237 546.071 247.427C552.931 247.569 559.787 247.669 566.638 247.726L571.586 247.812C571.586 247.812 590.255 247.512 597.115 247.427Z" fill="#F2F0F0"/>
<path d="M597.115 251.248C590.255 251.105 571.586 250.863 571.586 250.863L566.638 250.948C559.778 251.005 552.922 251.105 546.071 251.248C552.931 251.371 559.787 251.466 566.638 251.533L571.586 251.618C571.586 251.618 590.255 251.376 597.115 251.248Z" fill="#F2F0F0"/>
<path d="M495.126 248.852V242.964C495.125 242.892 495.137 242.82 495.163 242.753C495.189 242.685 495.228 242.624 495.278 242.572C495.328 242.52 495.387 242.479 495.453 242.451C495.519 242.423 495.589 242.408 495.661 242.408H498.88C499.025 242.408 499.165 242.467 499.268 242.571C499.37 242.676 499.428 242.817 499.428 242.964C499.428 243.112 499.37 243.253 499.268 243.358C499.165 243.462 499.025 243.52 498.88 243.52H496.223V245.345H498.486C498.628 245.352 498.762 245.414 498.861 245.517C498.96 245.62 499.017 245.757 499.02 245.901C499.022 245.974 499.01 246.046 498.984 246.113C498.958 246.18 498.919 246.242 498.869 246.294C498.819 246.345 498.76 246.387 498.694 246.415C498.628 246.443 498.558 246.457 498.486 246.457H496.195V248.296H498.852C498.997 248.296 499.137 248.355 499.239 248.459C499.342 248.564 499.4 248.705 499.4 248.852C499.4 249 499.342 249.141 499.239 249.246C499.137 249.35 498.997 249.409 498.852 249.409H495.675C495.529 249.409 495.39 249.35 495.287 249.246C495.184 249.141 495.126 249 495.126 248.852Z" fill="#529799"/>
<path d="M502.042 248.852C502.039 248.996 501.982 249.134 501.883 249.237C501.784 249.34 501.65 249.401 501.508 249.409C501.365 249.405 501.229 249.345 501.129 249.241C501.03 249.137 500.974 248.998 500.974 248.852V243.05C500.97 242.96 500.987 242.871 501.024 242.789C501.06 242.707 501.116 242.636 501.185 242.58C501.242 242.538 501.307 242.509 501.375 242.493C501.443 242.477 501.514 242.475 501.583 242.487C501.653 242.499 501.719 242.525 501.778 242.563C501.838 242.6 501.889 242.65 501.93 242.708L505.121 247.17V243.05C505.121 242.909 505.175 242.773 505.272 242.672C505.369 242.571 505.502 242.512 505.641 242.508C505.783 242.512 505.918 242.569 506.02 242.67C506.122 242.77 506.182 242.906 506.189 243.05V248.852C506.186 248.999 506.127 249.138 506.025 249.242C505.923 249.345 505.785 249.405 505.641 249.409C505.565 249.406 505.491 249.386 505.423 249.352C505.355 249.317 505.295 249.269 505.247 249.209L502.098 244.775L502.042 248.852Z" fill="#529799"/>
<path d="M507.749 245.787C507.753 245.309 507.85 244.835 508.034 244.395C508.219 243.954 508.487 243.555 508.824 243.22C509.161 242.885 509.56 242.62 509.998 242.442C510.436 242.264 510.904 242.175 511.376 242.18C512.191 242.18 512.983 242.456 513.625 242.964C513.689 243.008 513.744 243.065 513.785 243.13C513.827 243.196 513.854 243.27 513.867 243.347C513.879 243.425 513.875 243.503 513.856 243.579C513.837 243.655 513.803 243.726 513.755 243.788C513.708 243.849 513.649 243.9 513.581 243.938C513.513 243.975 513.439 243.998 513.362 244.005C513.285 244.012 513.208 244.003 513.135 243.979C513.061 243.954 512.994 243.915 512.937 243.863C512.489 243.514 511.941 243.324 511.376 243.321C511.048 243.317 510.723 243.379 510.418 243.504C510.114 243.629 509.838 243.814 509.605 244.048C509.374 244.273 509.19 244.543 509.064 244.842C508.939 245.141 508.874 245.462 508.874 245.787C508.873 246.11 508.938 246.43 509.063 246.726C509.189 247.023 509.373 247.291 509.605 247.512C509.838 247.747 510.114 247.931 510.418 248.056C510.723 248.181 511.048 248.243 511.376 248.239C511.87 248.239 512.355 248.106 512.782 247.854V246.429H511.376C511.228 246.425 511.087 246.364 510.982 246.258C510.878 246.152 510.817 246.009 510.814 245.859C510.817 245.71 510.878 245.568 510.983 245.464C511.088 245.361 511.229 245.302 511.376 245.303H513.344C513.417 245.301 513.49 245.314 513.558 245.341C513.626 245.368 513.689 245.408 513.741 245.46C513.793 245.512 513.835 245.574 513.864 245.642C513.892 245.711 513.907 245.784 513.907 245.859V248.068C513.914 248.125 513.914 248.183 513.907 248.239C513.871 248.341 513.802 248.427 513.71 248.482C513.071 248.988 512.285 249.264 511.475 249.266C510.526 249.305 509.601 248.96 508.903 248.308C508.204 247.656 507.789 246.749 507.749 245.787Z" fill="#529799"/>
<path d="M515.565 248.852V242.964C515.565 242.817 515.623 242.676 515.726 242.571C515.829 242.467 515.968 242.408 516.114 242.408C516.259 242.408 516.399 242.467 516.501 242.571C516.604 242.676 516.662 242.817 516.662 242.964V248.296H519.333C519.478 248.296 519.618 248.355 519.721 248.459C519.823 248.564 519.881 248.705 519.881 248.852C519.881 249 519.823 249.141 519.721 249.246C519.618 249.35 519.478 249.409 519.333 249.409H516.114C515.968 249.409 515.829 249.35 515.726 249.246C515.623 249.141 515.565 249 515.565 248.852Z" fill="#529799"/>
<path d="M521.23 242.936C521.228 242.862 521.241 242.789 521.268 242.721C521.295 242.653 521.335 242.59 521.387 242.538C521.438 242.486 521.499 242.446 521.566 242.418C521.634 242.391 521.706 242.378 521.779 242.38C521.923 242.384 522.06 242.443 522.162 242.547C522.264 242.65 522.323 242.79 522.327 242.936V248.852C522.323 248.999 522.264 249.138 522.162 249.242C522.06 249.345 521.923 249.405 521.779 249.409C521.706 249.41 521.634 249.397 521.566 249.37C521.499 249.343 521.438 249.302 521.387 249.25C521.335 249.198 521.295 249.136 521.268 249.068C521.241 248.999 521.228 248.926 521.23 248.852V242.936Z" fill="#529799"/>
<path d="M523.944 247.641C523.986 247.588 524.038 247.544 524.098 247.512C524.157 247.48 524.221 247.46 524.288 247.453C524.355 247.446 524.422 247.453 524.486 247.473C524.55 247.493 524.61 247.526 524.661 247.569C525.19 248.026 525.851 248.296 526.545 248.339C526.984 248.344 527.416 248.215 527.782 247.969C527.904 247.894 528.007 247.79 528.081 247.666C528.154 247.541 528.196 247.401 528.204 247.256C528.21 247.138 528.175 247.022 528.105 246.928C528.034 246.804 527.932 246.701 527.81 246.628C527.374 246.385 526.897 246.225 526.404 246.158C525.967 246.09 525.541 245.96 525.139 245.773C524.764 245.61 524.446 245.337 524.225 244.989C524.071 244.747 523.993 244.464 524 244.176C524.011 243.894 524.086 243.618 524.22 243.37C524.354 243.123 524.544 242.911 524.774 242.751C525.275 242.392 525.875 242.202 526.489 242.209C527.267 242.245 528.015 242.53 528.625 243.021C528.68 243.058 528.728 243.104 528.765 243.159C528.802 243.214 528.827 243.276 528.84 243.341C528.854 243.406 528.854 243.473 528.841 243.538C528.828 243.603 528.803 243.665 528.766 243.72C528.73 243.777 528.684 243.827 528.629 243.866C528.574 243.905 528.512 243.933 528.447 243.947C528.381 243.962 528.314 243.963 528.248 243.951C528.182 243.939 528.119 243.914 528.063 243.877C527.657 243.494 527.148 243.241 526.601 243.15C526.205 243.143 525.816 243.263 525.49 243.492C525.383 243.558 525.294 243.65 525.23 243.759C525.166 243.868 525.13 243.992 525.125 244.119C525.117 244.215 525.142 244.311 525.195 244.39C525.26 244.498 525.346 244.59 525.448 244.661C525.834 244.876 526.252 245.026 526.685 245.103C527.169 245.182 527.641 245.321 528.091 245.516C528.491 245.69 528.833 245.977 529.075 246.343C529.234 246.599 529.317 246.896 529.314 247.199C529.305 247.505 529.223 247.804 529.076 248.072C528.93 248.34 528.722 248.568 528.471 248.738C527.935 249.117 527.296 249.316 526.643 249.309C525.719 249.265 524.835 248.914 524.127 248.311C524.022 248.24 523.945 248.134 523.911 248.011C523.878 247.887 523.889 247.756 523.944 247.641Z" fill="#529799"/>
<path d="M530.734 248.852V242.964C530.732 242.892 530.745 242.82 530.771 242.753C530.797 242.685 530.836 242.624 530.885 242.572C530.935 242.52 530.995 242.479 531.061 242.451C531.126 242.423 531.197 242.408 531.268 242.408C531.341 242.406 531.413 242.42 531.48 242.447C531.548 242.474 531.609 242.515 531.66 242.567C531.712 242.619 531.752 242.681 531.779 242.749C531.806 242.818 531.818 242.891 531.816 242.964V245.36H534.375V242.964C534.373 242.892 534.386 242.82 534.412 242.753C534.438 242.685 534.477 242.624 534.526 242.572C534.576 242.52 534.636 242.479 534.701 242.451C534.767 242.423 534.838 242.408 534.909 242.408C534.982 242.406 535.054 242.42 535.121 242.447C535.189 242.474 535.25 242.515 535.301 242.567C535.352 242.619 535.393 242.681 535.42 242.749C535.447 242.818 535.459 242.891 535.457 242.964V248.852C535.459 248.926 535.447 248.999 535.42 249.068C535.393 249.136 535.352 249.198 535.301 249.25C535.25 249.302 535.189 249.343 535.121 249.37C535.054 249.397 534.982 249.41 534.909 249.409C534.838 249.409 534.767 249.394 534.701 249.366C534.636 249.338 534.576 249.297 534.526 249.245C534.477 249.193 534.438 249.132 534.412 249.064C534.386 248.997 534.373 248.925 534.375 248.852V246.429H531.816V248.852C531.818 248.926 531.806 248.999 531.779 249.068C531.752 249.136 531.712 249.198 531.66 249.25C531.609 249.302 531.548 249.343 531.48 249.37C531.413 249.397 531.341 249.41 531.268 249.409C531.197 249.409 531.126 249.394 531.061 249.366C530.995 249.338 530.935 249.297 530.885 249.245C530.836 249.193 530.797 249.132 530.771 249.064C530.745 248.997 530.732 248.925 530.734 248.852Z" fill="#529799"/>
<path d="M595.736 202.39H496.911V215.649H595.736V202.39Z" fill="#529799"/>
<path d="M563.207 203.773H496.897V214.28H563.207V203.773Z" fill="white"/>
<path d="M501.198 212.113C506.362 212.17 511.517 212.208 516.662 212.227H532.125H547.589C552.762 212.227 557.916 212.189 563.052 212.113C557.893 212.113 552.72 212.027 547.589 211.999H532.125H516.662C511.531 212.027 506.357 212.056 501.198 212.113Z" fill="#F2F0F0"/>
<path d="M501.198 210.06C506.357 210.06 511.531 210.146 516.662 210.16H532.125H547.589C552.762 210.16 557.935 210.16 563.052 210.06C557.888 210.003 552.734 209.965 547.589 209.946H532.125H516.662C511.517 209.965 506.362 210.003 501.198 210.06Z" fill="#F2F0F0"/>
<path d="M501.198 207.993C506.357 207.993 511.531 208.078 516.662 208.107H532.125H547.589C552.762 208.107 557.935 208.107 563.052 207.993C557.888 207.936 552.734 207.898 547.589 207.879H532.125H516.662C511.517 207.898 506.362 207.936 501.198 207.993Z" fill="#F2F0F0"/>
<path d="M501.198 205.926C506.362 205.983 511.517 206.021 516.662 206.04H532.125H547.589C552.762 206.04 557.916 206.002 563.052 205.926C557.893 205.926 552.72 205.84 547.589 205.811H532.125H516.662C511.531 205.84 506.357 205.869 501.198 205.926Z" fill="#F2F0F0"/>
<path d="M567.256 212.084V206.196C567.256 205.897 567.425 205.64 567.636 205.64H569.857C570.054 205.64 570.236 205.897 570.236 206.196C570.236 206.496 570.054 206.752 569.857 206.752H568.015V208.577H569.604C569.801 208.577 569.969 208.834 569.969 209.133C569.969 209.433 569.801 209.689 569.604 209.689H568.015V212.084C568.015 212.384 567.847 212.64 567.636 212.64C567.425 212.64 567.256 212.384 567.256 212.084Z" fill="#37474F"/>
<path d="M574.524 211.785C574.562 211.912 574.559 212.048 574.516 212.174C574.473 212.299 574.392 212.408 574.285 212.484C574.234 212.496 574.181 212.496 574.13 212.484C574.03 212.479 573.936 212.438 573.863 212.37C573.766 212.267 573.689 212.146 573.638 212.013C573.533 211.623 573.485 211.22 573.497 210.816C573.501 210.67 573.477 210.525 573.427 210.388C573.382 210.276 573.309 210.178 573.216 210.103C573.109 209.995 572.979 209.912 572.837 209.86H572.035V212.027C572.035 212.327 571.867 212.583 571.656 212.583C571.445 212.583 571.276 212.327 571.276 212.027V206.139C571.276 205.826 571.445 205.583 571.656 205.583H572.865C573.68 205.583 574.271 206.539 574.271 207.736C574.282 208.328 574.094 208.907 573.736 209.376C573.834 209.487 573.914 209.612 573.975 209.746C574.13 210.081 574.207 210.446 574.2 210.816C574.188 211.015 574.188 211.215 574.2 211.414C574.284 211.438 574.358 211.486 574.416 211.551C574.473 211.617 574.511 211.698 574.524 211.785ZM573.568 207.779C573.568 207.194 573.258 206.738 572.865 206.738H572.035V208.791H572.865C573.258 208.805 573.568 208.349 573.568 207.793V207.779Z" fill="#37474F"/>
<path d="M575.62 212.084V206.196C575.62 205.883 575.789 205.64 576 205.64H578.221C578.418 205.64 578.6 205.883 578.6 206.196C578.6 206.51 578.418 206.752 578.221 206.752H576.379V208.577H577.968C578.165 208.577 578.333 208.834 578.333 209.133C578.333 209.433 578.165 209.689 577.968 209.689H576.379V211.528H578.221C578.418 211.528 578.6 211.771 578.6 212.084C578.6 212.398 578.418 212.64 578.221 212.64H576C575.803 212.64 575.62 212.384 575.62 212.084Z" fill="#37474F"/>
<path d="M580.4 212.084C580.4 212.384 580.231 212.64 580.034 212.64C579.837 212.64 579.669 212.384 579.669 212.084V206.282C579.654 206.117 579.705 205.953 579.809 205.826C579.847 205.786 579.894 205.757 579.946 205.742C579.998 205.726 580.053 205.725 580.106 205.738C580.158 205.751 580.207 205.778 580.246 205.816C580.285 205.854 580.314 205.901 580.329 205.954L582.522 210.416V206.296C582.522 206.011 582.691 205.754 582.902 205.754C583.113 205.754 583.267 206.011 583.267 206.296V212.099C583.267 212.398 583.099 212.655 582.902 212.655C582.842 212.649 582.785 212.627 582.736 212.592C582.686 212.557 582.647 212.51 582.621 212.455V212.384L580.442 207.95L580.4 212.084Z" fill="#37474F"/>
<path d="M584.687 209.034C584.687 207.066 585.826 205.455 587.19 205.441C587.492 205.452 587.788 205.528 588.059 205.663C588.33 205.798 588.571 205.989 588.764 206.225C588.833 206.346 588.869 206.484 588.869 206.624C588.869 206.764 588.833 206.902 588.764 207.023C588.745 207.075 588.713 207.121 588.672 207.157C588.631 207.193 588.581 207.218 588.528 207.229C588.474 207.241 588.419 207.238 588.367 207.222C588.315 207.206 588.268 207.177 588.23 207.137C588.1 206.967 587.934 206.828 587.744 206.732C587.555 206.635 587.346 206.584 587.133 206.581C586.888 206.597 586.649 206.671 586.437 206.797C586.224 206.924 586.044 207.099 585.91 207.308C585.58 207.824 585.404 208.426 585.404 209.041C585.404 209.656 585.58 210.257 585.91 210.773C586.044 210.983 586.224 211.158 586.437 211.284C586.649 211.41 586.888 211.484 587.133 211.5C587.346 211.497 587.555 211.446 587.744 211.35C587.934 211.253 588.1 211.115 588.23 210.944C588.268 210.904 588.315 210.875 588.367 210.859C588.419 210.843 588.474 210.841 588.528 210.852C588.581 210.863 588.631 210.888 588.672 210.924C588.713 210.96 588.745 211.006 588.764 211.058C588.833 211.179 588.869 211.317 588.869 211.457C588.869 211.597 588.833 211.735 588.764 211.856C588.571 212.092 588.33 212.283 588.059 212.419C587.788 212.554 587.492 212.629 587.19 212.64C585.826 212.64 584.701 211.029 584.687 209.034Z" fill="#37474F"/>
<path d="M590.142 212.084V206.196C590.142 205.883 590.311 205.64 590.522 205.64C590.732 205.64 590.901 205.883 590.901 206.196V208.592H592.672V206.196C592.672 205.883 592.841 205.64 593.052 205.64C593.263 205.64 593.431 205.883 593.431 206.196V212.084C593.431 212.398 593.263 212.64 593.052 212.64C592.841 212.64 592.672 212.398 592.672 212.084V209.689H590.915V212.084C590.915 212.398 590.746 212.64 590.536 212.64C590.325 212.64 590.142 212.398 590.142 212.084Z" fill="#37474F"/>
<path d="M502.816 227.182V221.28C502.816 221.208 502.83 221.136 502.858 221.069C502.886 221.003 502.926 220.942 502.977 220.892C503.028 220.841 503.089 220.802 503.155 220.775C503.222 220.749 503.293 220.736 503.364 220.738H504.517C505.43 220.738 506.306 221.106 506.952 221.761C507.598 222.416 507.961 223.305 507.961 224.231C507.961 225.158 507.598 226.046 506.952 226.701C506.306 227.356 505.43 227.724 504.517 227.724H503.364C503.293 227.726 503.222 227.713 503.155 227.687C503.089 227.661 503.028 227.621 502.977 227.57C502.926 227.52 502.886 227.46 502.858 227.393C502.83 227.326 502.816 227.255 502.816 227.182ZM503.912 226.612H504.517C505.139 226.612 505.737 226.361 506.177 225.915C506.617 225.468 506.864 224.863 506.864 224.231C506.864 223.6 506.617 222.994 506.177 222.548C505.737 222.101 505.139 221.85 504.517 221.85H503.912V226.612Z" fill="#EBEBEB"/>
<path d="M509.464 221.28C509.464 221.208 509.478 221.136 509.506 221.069C509.534 221.003 509.574 220.942 509.625 220.892C509.676 220.841 509.737 220.802 509.803 220.775C509.87 220.749 509.941 220.736 510.012 220.738C510.155 220.738 510.292 220.795 510.395 220.896C510.497 220.997 510.557 221.135 510.56 221.28V227.182C510.557 227.327 510.497 227.465 510.395 227.566C510.292 227.667 510.155 227.724 510.012 227.724C509.941 227.726 509.87 227.713 509.803 227.687C509.737 227.661 509.676 227.621 509.625 227.57C509.574 227.52 509.534 227.46 509.506 227.393C509.478 227.326 509.464 227.255 509.464 227.182V221.28Z" fill="#EBEBEB"/>
<path d="M512.094 224.131C512.113 223.172 512.502 222.258 513.177 221.587C513.853 220.915 514.761 220.538 515.707 220.539C516.53 220.531 517.331 220.802 517.985 221.309C518.099 221.404 518.172 221.539 518.191 221.688C518.209 221.836 518.17 221.986 518.083 222.107C517.993 222.228 517.86 222.308 517.713 222.329C517.565 222.351 517.415 222.312 517.296 222.221C516.845 221.857 516.283 221.666 515.707 221.679C515.049 221.681 514.416 221.936 513.936 222.392C513.481 222.854 513.223 223.479 513.219 224.131C513.219 224.455 513.283 224.775 513.406 225.074C513.529 225.372 513.709 225.643 513.936 225.871C514.416 226.327 515.049 226.582 515.707 226.584C516.283 226.597 516.845 226.405 517.296 226.042C517.417 225.959 517.563 225.924 517.708 225.942C517.852 225.961 517.986 226.031 518.083 226.142C518.17 226.262 518.209 226.412 518.191 226.561C518.172 226.709 518.099 226.845 517.985 226.94C517.451 227.365 516.81 227.631 516.136 227.707C515.461 227.782 514.779 227.665 514.167 227.369C513.554 227.072 513.035 226.608 512.669 226.028C512.303 225.449 512.104 224.777 512.094 224.089V224.131Z" fill="#EBEBEB"/>
<path d="M524.197 221.85H522.636V227.182C522.636 227.326 522.58 227.464 522.48 227.565C522.38 227.667 522.244 227.724 522.102 227.724C521.959 227.724 521.822 227.667 521.719 227.566C521.617 227.465 521.558 227.327 521.554 227.182V221.85H519.994C519.849 221.843 519.713 221.78 519.614 221.674C519.515 221.567 519.459 221.426 519.459 221.28C519.459 221.136 519.516 220.999 519.616 220.897C519.716 220.795 519.852 220.738 519.994 220.738H524.211C524.354 220.738 524.491 220.795 524.594 220.896C524.696 220.997 524.755 221.135 524.759 221.28C524.756 221.43 524.695 221.573 524.59 221.679C524.486 221.785 524.345 221.847 524.197 221.85Z" fill="#EBEBEB"/>
<path d="M526.433 221.28C526.433 221.208 526.447 221.136 526.475 221.069C526.502 221.003 526.543 220.942 526.594 220.892C526.645 220.841 526.706 220.802 526.772 220.775C526.839 220.749 526.91 220.736 526.981 220.738C527.124 220.738 527.261 220.795 527.364 220.896C527.466 220.997 527.526 221.135 527.529 221.28V227.182C527.526 227.327 527.466 227.465 527.364 227.566C527.261 227.667 527.124 227.724 526.981 227.724C526.91 227.726 526.839 227.713 526.772 227.687C526.706 227.661 526.645 227.621 526.594 227.57C526.543 227.52 526.502 227.46 526.475 227.393C526.447 227.326 526.433 227.255 526.433 227.182V221.28Z" fill="#EBEBEB"/>
<path d="M534.796 221.608C535.437 222.287 535.795 223.191 535.795 224.131C535.795 225.072 535.437 225.975 534.796 226.655C534.5 226.988 534.138 227.256 533.733 227.44C533.329 227.624 532.892 227.721 532.449 227.724C531.995 227.723 531.546 227.627 531.13 227.444C530.714 227.26 530.34 226.991 530.031 226.655C529.408 225.966 529.063 225.066 529.063 224.131C529.063 223.197 529.408 222.297 530.031 221.608C530.34 221.271 530.714 221.003 531.13 220.819C531.546 220.635 531.995 220.54 532.449 220.539C532.892 220.542 533.329 220.638 533.733 220.823C534.138 221.007 534.5 221.274 534.796 221.608ZM534.67 224.131C534.669 223.484 534.434 222.86 534.009 222.378C533.809 222.16 533.568 221.986 533.3 221.866C533.031 221.746 532.742 221.682 532.449 221.679C532.149 221.678 531.852 221.74 531.576 221.86C531.3 221.98 531.052 222.156 530.846 222.378C530.415 222.857 530.179 223.483 530.185 224.131C530.177 224.776 530.414 225.398 530.846 225.871C531.046 226.094 531.29 226.273 531.563 226.395C531.835 226.517 532.13 226.58 532.428 226.58C532.725 226.58 533.02 226.517 533.292 226.395C533.565 226.273 533.809 226.094 534.009 225.871C534.435 225.395 534.671 224.774 534.67 224.131Z" fill="#EBEBEB"/>
<path d="M538.564 227.182C538.561 227.325 538.503 227.461 538.404 227.561C538.304 227.662 538.171 227.72 538.03 227.724C537.959 227.726 537.888 227.713 537.821 227.687C537.755 227.661 537.694 227.621 537.643 227.57C537.592 227.52 537.551 227.46 537.524 227.393C537.496 227.326 537.482 227.255 537.482 227.182V221.38C537.479 221.291 537.499 221.203 537.538 221.123C537.577 221.044 537.635 220.975 537.707 220.924C537.821 220.839 537.963 220.803 538.102 220.825C538.242 220.846 538.368 220.923 538.452 221.038L541.629 225.5V221.394C541.629 221.323 541.643 221.252 541.669 221.187C541.696 221.121 541.736 221.061 541.785 221.011C541.835 220.961 541.894 220.921 541.959 220.894C542.023 220.866 542.093 220.852 542.163 220.852C542.233 220.852 542.303 220.866 542.367 220.894C542.432 220.921 542.491 220.961 542.541 221.011C542.59 221.061 542.63 221.121 542.657 221.187C542.683 221.252 542.697 221.323 542.697 221.394V227.197C542.697 227.34 542.641 227.478 542.541 227.58C542.441 227.681 542.305 227.738 542.163 227.738C542.085 227.735 542.009 227.716 541.938 227.682C541.868 227.648 541.806 227.599 541.755 227.539L538.606 223.105L538.564 227.182Z" fill="#EBEBEB"/>
<path d="M548.573 226.042H546.183L545.705 227.353C545.661 227.456 545.588 227.543 545.496 227.604C545.403 227.665 545.295 227.696 545.185 227.696H545.002C544.865 227.641 544.755 227.535 544.694 227.399C544.634 227.263 544.628 227.108 544.679 226.968L546.858 221.095C546.9 220.99 546.972 220.901 547.065 220.838C547.158 220.775 547.266 220.741 547.378 220.741C547.489 220.741 547.598 220.775 547.691 220.838C547.784 220.901 547.856 220.99 547.898 221.095L550.077 226.968C550.128 227.108 550.122 227.263 550.062 227.399C550.001 227.535 549.891 227.641 549.754 227.696H549.557C549.45 227.697 549.346 227.664 549.258 227.603C549.17 227.542 549.102 227.455 549.065 227.353L548.573 226.042ZM548.179 224.944L547.378 222.805L546.577 224.944H548.179Z" fill="#EBEBEB"/>
<path d="M555.982 226.897C556.027 227.037 556.014 227.189 555.949 227.32C555.883 227.451 555.768 227.55 555.631 227.596H555.42C555.285 227.6 555.152 227.56 555.04 227.482C554.906 227.397 554.794 227.28 554.717 227.14C554.567 226.759 554.5 226.351 554.52 225.942C554.519 225.79 554.475 225.642 554.394 225.514C554.322 225.391 554.22 225.288 554.098 225.215C553.929 225.11 553.744 225.033 553.55 224.987H552.383V227.154C552.363 227.284 552.297 227.403 552.198 227.488C552.098 227.574 551.972 227.621 551.842 227.621C551.712 227.621 551.586 227.574 551.487 227.488C551.388 227.403 551.322 227.284 551.301 227.154V221.252C551.301 221.108 551.357 220.97 551.457 220.868C551.558 220.767 551.694 220.71 551.835 220.71H553.606C554.038 220.714 554.458 220.851 554.809 221.105C555.161 221.358 555.428 221.715 555.573 222.127C555.719 222.538 555.736 222.986 555.623 223.408C555.511 223.83 555.273 224.207 554.942 224.488C555.072 224.594 555.186 224.719 555.279 224.858C555.494 225.177 555.607 225.556 555.603 225.942C555.588 226.137 555.588 226.332 555.603 226.527C555.69 226.554 555.77 226.602 555.835 226.667C555.901 226.731 555.952 226.81 555.982 226.897ZM554.576 222.877C554.576 222.605 554.47 222.343 554.28 222.151C554.09 221.958 553.833 221.85 553.564 221.85H552.341V223.903H553.564C553.7 223.907 553.834 223.883 553.96 223.833C554.086 223.784 554.201 223.709 554.298 223.613C554.395 223.517 554.472 223.403 554.525 223.276C554.578 223.15 554.605 223.014 554.605 222.877H554.576Z" fill="#EBEBEB"/>
<path d="M562.125 221.679L560.101 224.531V227.239C560.101 227.312 560.086 227.383 560.059 227.45C560.031 227.517 559.99 227.577 559.939 227.628C559.888 227.678 559.828 227.718 559.761 227.744C559.695 227.77 559.624 227.783 559.552 227.781C559.412 227.777 559.278 227.719 559.179 227.618C559.079 227.518 559.022 227.382 559.018 227.239V224.531L557.022 221.679C556.976 221.623 556.942 221.558 556.921 221.488C556.901 221.418 556.895 221.345 556.905 221.272C556.914 221.2 556.938 221.13 556.975 221.068C557.012 221.005 557.062 220.951 557.12 220.909C557.178 220.866 557.244 220.835 557.314 220.818C557.383 220.8 557.456 220.798 557.527 220.81C557.598 220.822 557.666 220.848 557.726 220.887C557.787 220.926 557.839 220.978 557.88 221.038L559.552 223.376L561.239 221.038C561.324 220.919 561.451 220.84 561.593 220.816C561.735 220.792 561.881 220.825 561.998 220.909C562.109 220.999 562.184 221.128 562.207 221.27C562.23 221.412 562.201 221.558 562.125 221.679Z" fill="#EBEBEB"/>
</svg>
