<svg width="56" height="56" viewBox="0 0 56 56" fill="none" xmlns="http://www.w3.org/2000/svg">
<rect x="0.155487" y="0.459229" width="55.4" height="55.4" rx="3.07778" fill="#F3EBE3"/>
<path d="M27.8555 31.2369C31.6801 31.2369 34.7805 28.2515 34.7805 24.5684C34.7805 20.8853 31.6801 17.8999 27.8555 17.8999C24.0308 17.8999 20.9305 20.8853 20.9305 24.5684C20.9305 28.2515 24.0308 31.2369 27.8555 31.2369Z" stroke="black" stroke-width="1.53889" stroke-linecap="round" stroke-linejoin="round"/>
<path d="M23.2594 29.7184L23.2491 37.2897C23.2491 38.213 23.8955 38.6644 24.6957 38.2848L27.4452 36.9819C27.6709 36.8691 28.0505 36.8691 28.2762 36.9819L31.0359 38.2848C31.8259 38.6542 32.4825 38.213 32.4825 37.2897V29.5337" stroke="black" stroke-width="1.53889" stroke-linecap="round" stroke-linejoin="round"/>
</svg>
