<svg width="72" height="72" viewBox="0 0 72 72" fill="none" xmlns="http://www.w3.org/2000/svg">
<rect width="72" height="72" rx="4" fill="#A0BCC2" fill-opacity="0.5"/>
<path d="M37.3473 23.8933L45.214 27.3866C47.4807 28.3866 47.4807 30.0399 45.214 31.0399L37.3473 34.5333C36.454 34.9333 34.9873 34.9333 34.094 34.5333L26.2273 31.0399C23.9607 30.0399 23.9607 28.3866 26.2273 27.3866L34.094 23.8933C34.9873 23.4933 36.454 23.4933 37.3473 23.8933Z" stroke="white" stroke-width="2" stroke-linecap="round" stroke-linejoin="round"/>
<path d="M24 34.6665C24 35.7865 24.84 37.0798 25.8667 37.5332L34.92 41.5598C35.6133 41.8665 36.4 41.8665 37.08 41.5598L46.1333 37.5332C47.16 37.0798 48 35.7865 48 34.6665" stroke="white" stroke-width="2" stroke-linecap="round" stroke-linejoin="round"/>
<path d="M24 41.3335C24 42.5735 24.7333 43.6935 25.8667 44.2002L34.92 48.2268C35.6133 48.5335 36.4 48.5335 37.08 48.2268L46.1333 44.2002C47.2667 43.6935 48 42.5735 48 41.3335" stroke="white" stroke-width="2" stroke-linecap="round" stroke-linejoin="round"/>
</svg>
