<svg width="56" height="56" viewBox="0 0 56 56" fill="none" xmlns="http://www.w3.org/2000/svg">
<rect x="0.233215" y="0.0422363" width="55.4" height="55.4" rx="3.07778" fill="#7FE9DE" fill-opacity="0.4"/>
<path d="M24.3425 34.9237H23.8295C19.7258 34.9237 17.674 33.8977 17.674 28.7681V23.6385C17.674 19.5348 19.7258 17.4829 23.8295 17.4829H32.0369C36.1406 17.4829 38.1925 19.5348 38.1925 23.6385V28.7681C38.1925 32.8718 36.1406 34.9237 32.0369 34.9237H31.5239C31.2059 34.9237 30.8981 35.0775 30.7032 35.334L29.1643 37.3859C28.4872 38.2887 27.3792 38.2887 26.7021 37.3859L25.1632 35.334C24.9991 35.1083 24.6195 34.9237 24.3425 34.9237Z" stroke="black" stroke-width="1.53889" stroke-miterlimit="10" stroke-linecap="round" stroke-linejoin="round"/>
<path d="M22.8037 23.6387H33.063M22.8037 28.7683H28.9593" stroke="black" stroke-width="1.53889" stroke-linecap="round" stroke-linejoin="round"/>
</svg>
