<svg width="72" height="72" viewBox="0 0 72 72" fill="none" xmlns="http://www.w3.org/2000/svg">
<rect width="72" height="72" rx="4" fill="#E3F3E4" fill-opacity="0.5"/>
<path d="M49.3346 28.6667H41.3346M28.0013 28.6667H22.668M49.3346 43.3333H44.0013M30.668 43.3333H22.668M33.3346 33.3333C33.9475 33.3333 34.5543 33.2126 35.1205 32.9781C35.6867 32.7436 36.2011 32.3998 36.6345 31.9665C37.0678 31.5332 37.4116 31.0187 37.6461 30.4525C37.8806 29.8863 38.0013 29.2795 38.0013 28.6667C38.0013 28.0538 37.8806 27.447 37.6461 26.8808C37.4116 26.3146 37.0678 25.8002 36.6345 25.3668C36.2011 24.9335 35.6867 24.5898 35.1205 24.3552C34.5543 24.1207 33.9475 24 33.3346 24C32.097 24 30.91 24.4917 30.0348 25.3668C29.1596 26.242 28.668 27.429 28.668 28.6667C28.668 29.9043 29.1596 31.0913 30.0348 31.9665C30.91 32.8417 32.097 33.3333 33.3346 33.3333ZM38.668 48C39.9056 48 41.0926 47.5083 41.9678 46.6332C42.843 45.758 43.3346 44.571 43.3346 43.3333C43.3346 42.0957 42.843 40.9087 41.9678 40.0335C41.0926 39.1583 39.9056 38.6667 38.668 38.6667C37.4303 38.6667 36.2433 39.1583 35.3681 40.0335C34.493 40.9087 34.0013 42.0957 34.0013 43.3333C34.0013 44.571 34.493 45.758 35.3681 46.6332C36.2433 47.5083 37.4303 48 38.668 48Z" stroke="white" stroke-width="2" stroke-miterlimit="10" stroke-linecap="round" stroke-linejoin="round"/>
</svg>
