<svg width="72" height="72" viewBox="0 0 72 72" fill="none" xmlns="http://www.w3.org/2000/svg">
<rect width="72" height="72" rx="4" fill="#EAC7C7" fill-opacity="0.6"/>
<path d="M38.3065 24.68L40.6532 29.3734C40.9732 30.0267 41.8265 30.6534 42.5465 30.7734L46.7999 31.48C49.5199 31.9334 50.1599 33.9067 48.1999 35.8534L44.8932 39.16C44.3332 39.72 44.0265 40.8 44.1999 41.5734L45.1465 45.6667C45.8932 48.9067 44.1732 50.16 41.3065 48.4667L37.3199 46.1067C36.5999 45.68 35.4132 45.68 34.6799 46.1067L30.6932 48.4667C27.8399 50.16 26.1065 48.8934 26.8532 45.6667L27.7999 41.5734C27.9732 40.8 27.6665 39.72 27.1065 39.16L23.7999 35.8534C21.8532 33.9067 22.4799 31.9334 25.1999 31.48L29.4532 30.7734C30.1599 30.6534 31.0132 30.0267 31.3332 29.3734L33.6799 24.68C34.9599 22.1334 37.0399 22.1334 38.3065 24.68Z" stroke="white" stroke-width="2" stroke-linecap="round" stroke-linejoin="round"/>
</svg>
