<svg width="72" height="72" viewBox="0 0 72 72" fill="none" xmlns="http://www.w3.org/2000/svg">
<rect width="72" height="72" rx="4" fill="#A555EC" fill-opacity="0.4"/>
<path d="M47.8811 34.8268C47.8811 41.3468 43.1478 47.4534 36.6811 49.2401C36.2411 49.3601 35.7611 49.3601 35.3211 49.2401C28.8544 47.4534 24.1211 41.3468 24.1211 34.8268V28.9734C24.1211 27.8801 24.9478 26.6401 25.9744 26.2268L33.4011 23.1868C35.0678 22.5068 36.9478 22.5068 38.6144 23.1868L46.0411 26.2268C47.0544 26.6401 47.8944 27.8801 47.8944 28.9734L47.8811 34.8268Z" stroke="white" stroke-width="2" stroke-linecap="round" stroke-linejoin="round"/>
<path d="M35.9987 36.6668C36.7059 36.6668 37.3842 36.3859 37.8843 35.8858C38.3844 35.3857 38.6654 34.7074 38.6654 34.0002C38.6654 33.2929 38.3844 32.6146 37.8843 32.1145C37.3842 31.6144 36.7059 31.3335 35.9987 31.3335C35.2915 31.3335 34.6132 31.6144 34.1131 32.1145C33.613 32.6146 33.332 33.2929 33.332 34.0002C33.332 34.7074 33.613 35.3857 34.1131 35.8858C34.6132 36.3859 35.2915 36.6668 35.9987 36.6668ZM35.9987 36.6668V40.6668" stroke="white" stroke-width="2" stroke-miterlimit="10" stroke-linecap="round" stroke-linejoin="round"/>
</svg>
