<svg width="57" height="56" viewBox="0 0 57 56" fill="none" xmlns="http://www.w3.org/2000/svg">
<rect x="0.986023" y="0.133545" width="55.4" height="55.4" rx="3.07778" fill="#E3F3E4"/>
<path d="M38.9453 22.1906H32.7898M22.5305 22.1906H18.4268M38.9453 33.4758H34.8416M24.5824 33.4758H18.4268M26.6342 25.7813C27.1058 25.7813 27.5727 25.6885 28.0083 25.508C28.444 25.3276 28.8398 25.0631 29.1733 24.7296C29.5067 24.3962 29.7712 24.0004 29.9516 23.5647C30.1321 23.1291 30.225 22.6621 30.225 22.1906C30.225 21.7191 30.1321 21.2521 29.9516 20.8165C29.7712 20.3808 29.5067 19.985 29.1733 19.6516C28.8398 19.3181 28.444 19.0536 28.0083 18.8732C27.5727 18.6927 27.1058 18.5999 26.6342 18.5999C25.6819 18.5999 24.7686 18.9782 24.0952 19.6516C23.4218 20.325 23.0435 21.2383 23.0435 22.1906C23.0435 23.1429 23.4218 24.0562 24.0952 24.7296C24.7686 25.403 25.6819 25.7813 26.6342 25.7813ZM30.7379 37.0665C31.6903 37.0665 32.6036 36.6882 33.277 36.0148C33.9504 35.3414 34.3287 34.4281 34.3287 33.4758C34.3287 32.5235 33.9504 31.6101 33.277 30.9367C32.6036 30.2633 31.6903 29.885 30.7379 29.885C29.7856 29.885 28.8723 30.2633 28.1989 30.9367C27.5255 31.6101 27.1472 32.5235 27.1472 33.4758C27.1472 34.4281 27.5255 35.3414 28.1989 36.0148C28.8723 36.6882 29.7856 37.0665 30.7379 37.0665Z" stroke="black" stroke-width="1.53889" stroke-miterlimit="10" stroke-linecap="round" stroke-linejoin="round"/>
</svg>
