<svg width="56" height="57" viewBox="0 0 56 57" fill="none" xmlns="http://www.w3.org/2000/svg">
<rect x="0.0637817" y="0.716553" width="55.4" height="55.4" rx="3.07778" fill="#EAC7C7" fill-opacity="0.6"/>
<path d="M29.5385 19.7065L31.3441 23.3177C31.5904 23.8204 32.247 24.3026 32.801 24.3949L36.0737 24.9387C38.1665 25.2875 38.659 26.8059 37.1509 28.3037L34.6066 30.848C34.1757 31.2789 33.9397 32.1099 34.0731 32.7049L34.8015 35.8545C35.376 38.3475 34.0526 39.3119 31.8468 38.009L28.7793 36.1931C28.2253 35.8648 27.3123 35.8648 26.748 36.1931L23.6805 38.009C21.485 39.3119 20.1513 38.3373 20.7258 35.8545L21.4542 32.7049C21.5876 32.1099 21.3516 31.2789 20.9207 30.848L18.3764 28.3037C16.8786 26.8059 17.3608 25.2875 19.4537 24.9387L22.7264 24.3949C23.2701 24.3026 23.9267 23.8204 24.1729 23.3177L25.9785 19.7065C26.9634 17.7469 28.5639 17.7469 29.5385 19.7065Z" stroke="black" stroke-width="1.53889" stroke-linecap="round" stroke-linejoin="round"/>
</svg>
