<svg width="15" height="14" viewBox="0 0 15 14" fill="none" xmlns="http://www.w3.org/2000/svg">
<path d="M3.14798 1.55618C3.14769 2.18951 2.7589 2.75942 2.16493 2.99718C1.57096 3.23495 0.890427 3.09309 0.44423 2.6385C-0.00196751 2.18391 -0.124721 1.50736 0.133843 0.92788C0.392415 0.348401 0.980671 -0.0182956 1.62123 0.000704595C2.47202 0.0259423 3.14837 0.715012 3.14798 1.55618ZM3.1952 4.26272H0.0472584V14H3.1952V4.26272ZM8.16897 4.26272H5.03675V14H8.13749V8.89025C8.13749 6.04372 11.8914 5.77929 11.8914 8.89025V14H15V7.83252C15 3.03389 9.44388 3.21277 8.13749 5.5693L8.16897 4.26272Z" fill="white"/>
</svg>
