<svg width="18" height="16" viewBox="0 0 18 16" fill="none" xmlns="http://www.w3.org/2000/svg">
<path d="M13.5 0H4.5C1.8 0 0 1.41176 0 4.70588V11.2941C0 14.5882 1.8 16 4.5 16H13.5C16.2 16 18 14.5882 18 11.2941V4.70588C18 1.41176 16.2 0 13.5 0ZM13.923 5.73176L11.106 8.08471C10.512 8.58353 9.756 8.82824 9 8.82824C8.244 8.82824 7.479 8.58353 6.894 8.08471L4.077 5.73176C3.9393 5.61223 3.85116 5.44163 3.83103 5.25567C3.8109 5.06971 3.86034 4.88282 3.969 4.73412C4.203 4.43294 4.626 4.37647 4.914 4.62118L7.731 6.97412C8.415 7.54824 9.576 7.54824 10.26 6.97412L13.077 4.62118C13.365 4.37647 13.797 4.42353 14.022 4.73412C14.256 5.03529 14.211 5.48706 13.923 5.73176Z" fill="white"/>
</svg>
