<svg width="17" height="17" viewBox="0 0 17 17" fill="none" xmlns="http://www.w3.org/2000/svg">
<g opacity="0.2" clip-path="url(#clip0_15378_19710)">
<path d="M15.2652 15.4439L13.8774 14.0561M7.97901 14.75C8.84472 14.75 9.70195 14.5795 10.5018 14.2482C11.3016 13.9169 12.0283 13.4313 12.6405 12.8191C13.2526 12.207 13.7382 11.4803 14.0695 10.6804C14.4008 9.88063 14.5713 9.0234 14.5713 8.15769C14.5713 7.29198 14.4008 6.43474 14.0695 5.63493C13.7382 4.83512 13.2526 4.10839 12.6405 3.49624C12.0283 2.88409 11.3016 2.3985 10.5018 2.06721C9.70195 1.73591 8.84472 1.5654 7.97901 1.5654C6.23062 1.5654 4.55385 2.25994 3.31756 3.49624C2.08126 4.73253 1.38672 6.4093 1.38672 8.15769C1.38672 9.90607 2.08126 11.5828 3.31756 12.8191C4.55385 14.0554 6.23062 14.75 7.97901 14.75Z" stroke="white" stroke-width="1.38785" stroke-linecap="round" stroke-linejoin="round"/>
</g>
<defs>
<clipPath id="clip0_15378_19710">
<rect width="16.6542" height="16.6542" fill="white" transform="translate(0 0.177567)"/>
</clipPath>
</defs>
</svg>
