<svg width="18" height="14" viewBox="0 0 18 14" fill="none" xmlns="http://www.w3.org/2000/svg">
<path d="M17.4684 1.71376C16.8322 1.99517 16.1575 2.17999 15.4667 2.26209C16.1948 1.82662 16.7398 1.14127 17 0.33376C16.3167 0.740427 15.5675 1.02543 14.7867 1.17959C14.2622 0.618409 13.567 0.24623 12.8092 0.120914C12.0513 -0.00440095 11.2733 0.12417 10.5961 0.486638C9.91887 0.849106 9.38037 1.42516 9.06431 2.12525C8.74824 2.82534 8.67233 3.61024 8.84838 4.35793C7.46263 4.28847 6.10699 3.92836 4.86945 3.30098C3.63191 2.6736 2.54015 1.79297 1.66504 0.71626C1.35529 1.2483 1.19251 1.85312 1.19338 2.46876C1.19338 3.67709 1.80838 4.74459 2.74338 5.36959C2.19005 5.35217 1.6489 5.20274 1.16504 4.93376V4.97709C1.16521 5.78184 1.44368 6.56177 1.95325 7.18464C2.46282 7.80751 3.17211 8.23499 3.96088 8.39459C3.44722 8.53379 2.90863 8.55431 2.38588 8.45459C2.60827 9.14729 3.04172 9.75309 3.62554 10.1872C4.20936 10.6213 4.91432 10.8619 5.64171 10.8754C4.91878 11.4432 4.09102 11.8629 3.20578 12.1106C2.32053 12.3582 1.39515 12.429 0.482544 12.3188C2.07563 13.3433 3.93012 13.8872 5.82421 13.8854C12.235 13.8854 15.7409 8.57459 15.7409 3.96876C15.7409 3.81876 15.7367 3.66709 15.73 3.51876C16.4124 3.02557 17.0014 2.41461 17.4692 1.71459L17.4684 1.71376Z" fill="white"/>
</svg>
