<svg width="390" height="645" viewBox="0 0 390 645" fill="none" xmlns="http://www.w3.org/2000/svg">
<rect x="-1" y="14" width="391" height="631" fill="url(#paint0_linear_15590_257)"/>
<path opacity="0.7" d="M393.816 36.777C397.233 36.4768 400.55 38.0221 402.519 40.8309L443.254 98.9605C445.222 101.769 445.542 105.415 444.094 108.524L414.12 172.866C412.671 175.975 409.674 178.075 406.258 178.375L335.549 184.588C332.132 184.888 328.815 183.343 326.846 180.534L286.111 122.405C284.143 119.596 283.823 115.95 285.271 112.841L315.245 48.499C316.694 45.3901 319.691 43.2899 323.107 42.9897L393.816 36.777Z" stroke="#B3E6E9" stroke-width="2.13333"/>
<path opacity="0.5" d="M7.59346 54.4282C7.74131 54.2216 7.98815 54.1096 8.24099 54.1343L14.1861 54.7161C14.439 54.7408 14.6594 54.8986 14.7644 55.1299L17.2332 60.5694C17.3382 60.8008 17.3118 61.0705 17.1639 61.2771L13.6876 66.1349C13.5397 66.3415 13.2929 66.4535 13.04 66.4288L7.09491 65.8471L7.02566 66.5548L7.09491 65.8471C6.84206 65.8223 6.62162 65.6646 6.51662 65.4332L4.04785 59.9937C3.94285 59.7624 3.96925 59.4926 4.1171 59.286L7.59346 54.4282Z" stroke="#66CED3" stroke-width="1.42222"/>
<path opacity="0.5" d="M30.9393 153.897C31.4457 153.939 31.8911 154.248 32.1078 154.708L33.5002 157.661C33.7169 158.12 33.6719 158.661 33.3823 159.078L31.5213 161.76C31.2316 162.178 30.7412 162.409 30.2349 162.367L26.9815 162.096C26.4751 162.054 26.0297 161.745 25.813 161.286L24.4206 158.333C24.2039 157.873 24.2488 157.333 24.5385 156.915L26.3995 154.233C26.6892 153.816 27.1795 153.584 27.6859 153.627L30.9393 153.897Z" fill="#A8EEEE"/>
<path opacity="0.3" d="M41.239 51.6088C43.2567 48.8354 46.6008 47.3491 50.0115 47.7098L125.911 55.7367C129.322 56.0974 132.281 58.2503 133.674 61.3844L164.672 131.129C166.065 134.263 165.68 137.902 163.662 140.675L118.761 202.393C116.743 205.166 113.399 206.653 109.989 206.292L34.0892 198.265C30.6785 197.904 27.7193 195.751 26.3263 192.617L-4.67187 122.873C-6.06485 119.739 -5.67998 116.1 -3.66223 113.326L41.239 51.6088Z" stroke="#B3E6E9" stroke-width="2.13333"/>
<defs>
<linearGradient id="paint0_linear_15590_257" x1="194.5" y1="14" x2="194.5" y2="645" gradientUnits="userSpaceOnUse">
<stop stop-color="#00ADB5" stop-opacity="0.12"/>
<stop offset="1" stop-color="#00ADB5" stop-opacity="0"/>
</linearGradient>
</defs>
</svg>
