<svg width="24" height="24" viewBox="0 0 24 24" fill="none" xmlns="http://www.w3.org/2000/svg">
<circle cx="12" cy="12" r="12" fill="#00ADB5"/>
<path d="M12.0001 12C12.6631 12 13.299 11.7366 13.7678 11.2678C14.2367 10.7989 14.5001 10.163 14.5001 9.5C14.5001 8.83696 14.2367 8.20107 13.7678 7.73223C13.299 7.26339 12.6631 7 12.0001 7C11.337 7 10.7012 7.26339 10.2323 7.73223C9.76347 8.20107 9.50008 8.83696 9.50008 9.5C9.50008 10.163 9.76347 10.7989 10.2323 11.2678C10.7012 11.7366 11.337 12 12.0001 12ZM12.0001 13.25C9.49508 13.25 7.45508 14.93 7.45508 17C7.45508 17.14 7.56508 17.25 7.70508 17.25H16.2951C16.4351 17.25 16.5451 17.14 16.5451 17C16.5451 14.93 14.5051 13.25 12.0001 13.25Z" fill="white"/>
</svg>
