<svg width="23" height="23" viewBox="0 0 23 23" fill="none" xmlns="http://www.w3.org/2000/svg">
<path d="M14.3623 3.90112V7.47594H12.9512V3.90112C12.9512 3.64712 12.7254 3.52483 12.5749 3.52483C12.5278 3.52483 12.4808 3.53423 12.4338 3.55305L4.9737 6.36586C4.4751 6.55401 4.15525 7.02438 4.15525 7.5606V8.1909C3.29918 8.83061 2.74414 9.85601 2.74414 11.0131V7.5606C2.74414 6.44112 3.43088 5.44394 4.4751 5.04883L11.9446 2.22661C12.1515 2.15135 12.3679 2.11372 12.5749 2.11372C13.5156 2.11372 14.3623 2.87572 14.3623 3.90112ZM20.6182 13.8259V14.7667C20.6182 14.8898 20.57 15.0081 20.4838 15.096C20.3976 15.1839 20.2804 15.2346 20.1573 15.237H18.7838C18.2852 15.237 17.8336 14.8702 17.796 14.381C17.7678 14.0893 17.8807 13.8165 18.0688 13.6284C18.154 13.5402 18.2564 13.4704 18.3697 13.4235C18.483 13.3765 18.6047 13.3534 18.7273 13.3556H20.1478C20.4207 13.365 20.6182 13.5719 20.6182 13.8259Z" fill="#7C7B7C"/>
<path d="M18.7179 12.3678H19.6775C20.1949 12.3678 20.6182 11.9445 20.6182 11.427V11.0131C20.6182 9.06579 19.0284 7.47594 17.081 7.47594H6.28133C5.4817 7.47594 4.74792 7.73934 4.15525 8.1909C3.29918 8.8306 2.74414 9.85601 2.74414 11.0131V17.3443C2.74414 19.2916 4.33399 20.8815 6.28133 20.8815H17.081C19.0284 20.8815 20.6182 19.2916 20.6182 17.3443V17.1656C20.6182 16.6482 20.1949 16.2248 19.6775 16.2248H18.859C17.9559 16.2248 17.0904 15.6698 16.8553 14.7949C16.6577 14.0799 16.8929 13.3932 17.3633 12.9322C17.7113 12.5748 18.1911 12.3678 18.7179 12.3678ZM13.5627 12.1796H6.97747C6.59177 12.1796 6.27192 11.8598 6.27192 11.4741C6.27192 11.0884 6.59177 10.7685 6.97747 10.7685H13.5627C13.9484 10.7685 14.2682 11.0884 14.2682 11.4741C14.2682 11.8598 13.9484 12.1796 13.5627 12.1796Z" fill="#7C7B7C"/>
</svg>
