<svg width="23" height="24" viewBox="0 0 23 24" fill="none" xmlns="http://www.w3.org/2000/svg">
<path d="M19.3018 9.45977C17.5991 9.45977 16.9029 8.25562 17.7496 6.77866C18.2388 5.92259 17.9472 4.83133 17.0911 4.34214L15.4636 3.41081C14.7204 2.96866 13.7609 3.23207 13.3187 3.97525L13.2152 4.15399C12.3686 5.63096 10.9763 5.63096 10.1202 4.15399L10.0167 3.97525C9.9153 3.79744 9.77954 3.64156 9.61732 3.5167C9.45511 3.39184 9.26968 3.30049 9.07183 3.24797C8.87398 3.19544 8.66766 3.18279 8.46488 3.21074C8.26209 3.2387 8.06689 3.30671 7.89064 3.41081L6.26315 4.34214C5.40708 4.83133 5.11545 5.93199 5.60464 6.78807C6.46071 8.25562 5.76456 9.45977 4.06182 9.45977C3.08345 9.45977 2.27441 10.2594 2.27441 11.2472V12.9029C2.27441 13.8813 3.07404 14.6903 4.06182 14.6903C5.76456 14.6903 6.46071 15.8944 5.60464 17.3714C5.11545 18.2275 5.40708 19.3187 6.26315 19.8079L7.89064 20.7393C8.63382 21.1814 9.59338 20.918 10.0355 20.1748L10.139 19.9961C10.9857 18.5191 12.378 18.5191 13.234 19.9961L13.3375 20.1748C13.7797 20.918 14.7392 21.1814 15.4824 20.7393L17.1099 19.8079C17.966 19.3187 18.2576 18.2181 17.7684 17.3714C16.9123 15.8944 17.6085 14.6903 19.3112 14.6903C20.2896 14.6903 21.0986 13.8907 21.0986 12.9029V11.2472C21.0937 10.773 20.9025 10.3198 20.5663 9.98543C20.2302 9.65102 19.776 9.46222 19.3018 9.45977ZM11.6818 15.1324C9.9979 15.1324 8.62441 13.759 8.62441 12.075C8.62441 10.3911 9.9979 9.01762 11.6818 9.01762C13.3657 9.01762 14.7392 10.3911 14.7392 12.075C14.7392 13.759 13.3657 15.1324 11.6818 15.1324Z" fill="#7C7B7C"/>
</svg>
