<svg width="23" height="24" viewBox="0 0 23 24" fill="none" xmlns="http://www.w3.org/2000/svg">
<path d="M8.85914 2.64445C6.3944 2.64445 4.39062 4.64823 4.39062 7.11297C4.39062 9.53068 6.28151 11.4874 8.74625 11.5721C8.82151 11.5627 8.89677 11.5627 8.95322 11.5721H9.01907C10.1756 11.5335 11.2717 11.0467 12.0758 10.2145C12.8799 9.38236 13.3288 8.27012 13.3277 7.11297C13.3277 4.64823 11.3239 2.64445 8.85914 2.64445ZM13.6381 14.0735C11.0134 12.3237 6.73307 12.3237 4.08959 14.0735C2.89485 14.8731 2.23633 15.955 2.23633 17.1121C2.23633 18.2692 2.89485 19.3417 4.08018 20.1319C5.39722 21.0162 7.12818 21.4583 8.85914 21.4583C10.5901 21.4583 12.3211 21.0162 13.6381 20.1319C14.8234 19.3323 15.482 18.2598 15.482 17.0933C15.4726 15.9362 14.8234 14.8637 13.6381 14.0735ZM19.1979 7.66613C19.3484 9.49117 18.0502 11.0904 16.2534 11.3068H16.2063C16.1499 11.3068 16.0934 11.3068 16.0464 11.3256C15.1339 11.3726 14.2966 11.081 13.6663 10.5448C14.6353 9.67931 15.1903 8.38109 15.0774 6.96998C15.0129 6.23621 14.7637 5.5307 14.3531 4.91917C14.846 4.67935 15.3899 4.56306 15.9378 4.58033C16.4857 4.5976 17.0212 4.7479 17.498 5.01828C17.9749 5.28865 18.3788 5.67098 18.675 6.13228C18.9711 6.59358 19.1506 7.12 19.1979 7.66613Z" fill="#7C7B7C"/>
<path d="M21.0777 16.3699C21.0024 17.2824 20.4192 18.0726 19.4408 18.6088C18.5001 19.1262 17.3147 19.3708 16.1388 19.3426C16.8161 18.7311 17.2112 17.9691 17.2865 17.1601C17.3806 15.9936 16.8255 14.8741 15.7155 13.9804C15.0852 13.4818 14.3514 13.0867 13.5518 12.7951C15.6308 12.193 18.2461 12.5975 19.8547 13.8957C20.7202 14.5919 21.1624 15.4668 21.0777 16.3699Z" fill="#7C7B7C"/>
</svg>
