<svg width="23" height="24" viewBox="0 0 23 24" fill="none" xmlns="http://www.w3.org/2000/svg">
<path d="M17.7674 16.3956L18.1343 19.3684C18.2284 20.1492 17.3911 20.6948 16.7232 20.2903L13.4682 18.3524C13.2424 18.2207 13.186 17.9384 13.3083 17.7127C13.7787 16.8472 14.0327 15.8688 14.0327 14.8904C14.0327 11.4473 11.0787 8.64392 7.44749 8.64392C6.7043 8.64392 5.97993 8.75681 5.3026 8.98259C5.22251 9.00729 5.13732 9.01037 5.05566 8.99151C4.97401 8.97265 4.89879 8.93252 4.83765 8.87521C4.77651 8.81789 4.73162 8.74541 4.70754 8.66514C4.68346 8.58487 4.68103 8.49966 4.70052 8.41815C5.5566 4.99385 8.84919 2.44444 12.7815 2.44444C17.3723 2.44444 21.0882 5.91578 21.0882 10.1961C21.0882 12.7361 19.7806 14.9845 17.7674 16.3956Z" fill="#7C7B7C"/>
<path d="M12.6226 14.8904C12.6226 16.0099 12.2086 17.0447 11.5125 17.8632C10.5812 18.9921 9.10419 19.7164 7.44849 19.7164L4.99315 21.1746C4.57923 21.4286 4.05241 21.0805 4.10886 20.6007L4.34404 18.7475C3.08345 17.8726 2.27441 16.4709 2.27441 14.8904C2.27441 13.2347 3.15871 11.7766 4.51338 10.9111C5.35064 10.3655 6.35723 10.055 7.44849 10.055C10.3083 10.055 12.6226 12.2187 12.6226 14.8904Z" fill="#7C7B7C"/>
</svg>
