<svg width="23" height="23" viewBox="0 0 23 23" fill="none" xmlns="http://www.w3.org/2000/svg">
<path d="M12.5191 5.9158H5.20012C4.42494 5.91828 3.68221 6.22732 3.13407 6.77546C2.58593 7.3236 2.27689 8.06632 2.27441 8.84151V19.5283C2.27441 20.8924 3.25278 21.4757 4.44753 20.8077L8.14464 18.7475C8.53975 18.5311 9.17945 18.5311 9.56515 18.7475L13.2623 20.8077C14.4664 21.4662 15.4448 20.8924 15.4448 19.5283V8.84151C15.4448 7.23284 14.1277 5.9158 12.5191 5.9158Z" fill="#7C7B7C"/>
<path d="M21.0888 5.19238V15.8792C21.0888 17.2433 20.1104 17.8171 18.9157 17.1586L17.1 16.1426C17.0264 16.1013 16.965 16.0413 16.922 15.9686C16.8791 15.8959 16.8561 15.8131 16.8554 15.7287V8.84246C16.8554 6.45297 14.9081 4.50564 12.5186 4.50564H8.68982C8.34175 4.50564 8.09715 4.13875 8.25708 3.83772C8.74626 2.90638 9.72463 2.26668 10.8441 2.26668H18.1631C19.7717 2.26668 21.0888 3.58371 21.0888 5.19238Z" fill="#7C7B7C"/>
</svg>
