<svg width="23" height="24" viewBox="0 0 23 24" fill="none" xmlns="http://www.w3.org/2000/svg">
<path d="M12.3867 15.9618H12.9982C13.6097 15.9618 14.1177 15.4162 14.1177 14.7576C14.1177 13.9392 13.8261 13.7793 13.3463 13.6099L12.3961 13.2807V15.9618H12.3867Z" fill="#7C7B7C"/>
<path d="M11.6537 2.77073C6.46077 2.78954 2.25566 7.01347 2.27448 12.2064C2.29329 17.3992 6.51722 21.6044 11.7101 21.5855C16.903 21.5667 21.1081 17.3428 21.0893 12.1499C21.0705 6.95702 16.8466 2.76132 11.6537 2.77073ZM13.808 12.2722C14.5417 12.5262 15.5295 13.0718 15.5295 14.7558C15.5295 16.2045 14.3912 17.371 12.9989 17.371H12.3874V17.9167C12.3874 18.3024 12.0676 18.6222 11.6819 18.6222C11.2962 18.6222 10.9763 18.3024 10.9763 17.9167V17.371H10.6377C9.09485 17.371 7.84366 16.0728 7.84366 14.4735C7.84366 14.0878 8.16351 13.768 8.54922 13.768C8.93492 13.768 9.25477 14.0878 9.25477 14.4735C9.25477 15.292 9.87566 15.9599 10.6377 15.9599H10.9763V12.7802L9.55581 12.2722C8.82203 12.0182 7.83425 11.4726 7.83425 9.78865C7.83425 8.33991 8.97255 7.17339 10.3648 7.17339H10.9763V6.62776C10.9763 6.24206 11.2962 5.92221 11.6819 5.92221C12.0676 5.92221 12.3874 6.24206 12.3874 6.62776V7.17339H12.7261C14.2689 7.17339 15.5201 8.47161 15.5201 10.0709C15.5201 10.4566 15.2003 10.7764 14.8146 10.7764C14.4288 10.7764 14.109 10.4566 14.109 10.0709C14.109 9.25243 13.4881 8.5845 12.7261 8.5845H12.3874V11.7642L13.808 12.2722Z" fill="#7C7B7C"/>
<path d="M9.25586 9.79806C9.25586 10.6165 9.54749 10.7764 10.0273 10.9458L10.9774 11.275V8.5845H10.3659C9.75445 8.5845 9.25586 9.13013 9.25586 9.79806Z" fill="#7C7B7C"/>
</svg>
