<svg width="17" height="17" viewBox="0 0 17 17" fill="none" xmlns="http://www.w3.org/2000/svg">
<g opacity="0.2" clip-path="url(#clip0_15133_1296)">
<path d="M15.2662 15.4439L13.8783 14.0561M7.97998 14.75C8.8457 14.75 9.70293 14.5795 10.5027 14.2482C11.3026 13.9169 12.0293 13.4313 12.6414 12.8191C13.2536 12.207 13.7392 11.4803 14.0705 10.6804C14.4018 9.88063 14.5723 9.0234 14.5723 8.15769C14.5723 7.29198 14.4018 6.43474 14.0705 5.63493C13.7392 4.83512 13.2536 4.10839 12.6414 3.49624C12.0293 2.88409 11.3026 2.3985 10.5027 2.06721C9.70293 1.73591 8.8457 1.5654 7.97998 1.5654C6.2316 1.5654 4.55483 2.25994 3.31853 3.49624C2.08224 4.73253 1.3877 6.4093 1.3877 8.15769C1.3877 9.90607 2.08224 11.5828 3.31853 12.8191C4.55483 14.0554 6.2316 14.75 7.97998 14.75Z" stroke="black" stroke-width="1.38785" stroke-linecap="round" stroke-linejoin="round"/>
</g>
<defs>
<clipPath id="clip0_15133_1296">
<rect width="16.6542" height="16.6542" fill="white" transform="translate(0 0.177551)"/>
</clipPath>
</defs>
</svg>
