<svg width="1439" height="846" viewBox="0 0 1439 846" fill="none" xmlns="http://www.w3.org/2000/svg">
<rect width="1439" height="846" fill="url(#paint0_linear_15590_256)"/>
<path opacity="0.5" d="M101.454 422.632C101.662 422.342 102.009 422.184 102.364 422.219L116.748 423.627C117.104 423.661 117.414 423.883 117.562 424.209L123.535 437.369C123.683 437.695 123.645 438.074 123.438 438.365L115.026 450.118C114.819 450.409 114.471 450.566 114.116 450.531L99.7316 449.124C99.376 449.089 99.066 448.867 98.9184 448.542L92.9452 435.381C92.7975 435.056 92.8347 434.676 93.0426 434.386L101.454 422.632Z" stroke="#66CED3" stroke-width="2"/>
<path opacity="0.5" d="M153.568 642.479C154.28 642.539 154.906 642.973 155.211 643.62L158.832 651.299C159.137 651.946 159.074 652.705 158.667 653.292L153.826 660.268C153.419 660.855 152.73 661.181 152.017 661.121L143.556 660.418C142.844 660.358 142.218 659.924 141.913 659.277L138.292 651.598C137.987 650.951 138.05 650.192 138.457 649.605L143.297 642.629C143.705 642.042 144.394 641.716 145.106 641.776L153.568 642.479Z" fill="#A8EEEE"/>
<path opacity="0.5" d="M1319.27 310.961C1319.98 311.021 1320.6 311.455 1320.91 312.101L1324.53 319.781C1324.83 320.427 1324.77 321.187 1324.36 321.774L1319.52 328.75C1319.12 329.337 1318.43 329.662 1317.71 329.603L1309.25 328.9C1308.54 328.84 1307.91 328.406 1307.61 327.759L1303.99 320.08C1303.68 319.433 1303.75 318.674 1304.15 318.087L1308.99 311.111C1309.4 310.524 1310.09 310.198 1310.8 310.258L1319.27 310.961Z" fill="#66CED3"/>
<path opacity="0.3" d="M1356.17 474.73C1356.48 474.551 1356.86 474.551 1357.17 474.73L1367.7 480.81C1368.01 480.989 1368.2 481.319 1368.2 481.676V493.838C1368.2 494.195 1368.01 494.525 1367.7 494.704L1357.17 500.784C1356.86 500.963 1356.48 500.963 1356.17 500.784L1345.64 494.704C1345.33 494.525 1345.14 494.195 1345.14 493.838V481.676C1345.14 481.319 1345.33 480.989 1345.64 480.81L1356.17 474.73Z" stroke="#66CED3" stroke-width="2"/>
<path opacity="0.3" d="M177.781 412.829C180.619 408.929 185.321 406.839 190.118 407.346L366.907 426.043C371.704 426.55 375.865 429.578 377.824 433.985L450.027 596.438C451.986 600.845 451.445 605.963 448.607 609.863L344.02 753.619C341.183 757.519 336.48 759.609 331.684 759.102L154.894 740.405C150.098 739.898 145.937 736.87 143.978 732.463L71.7747 570.01C69.8158 565.603 70.3571 560.485 73.1945 556.585L177.781 412.829Z" stroke="#B3E6E9" stroke-width="3"/>
<path opacity="0.7" d="M1217.95 111.155C1222.76 110.733 1227.42 112.906 1230.19 116.856L1352.92 291.989C1355.68 295.939 1356.14 301.065 1354.1 305.437L1263.79 499.288C1261.76 503.66 1257.54 506.613 1252.74 507.036L1039.7 525.753C1034.9 526.176 1030.23 524.002 1027.47 520.053L904.74 344.92C901.972 340.97 901.521 335.843 903.558 331.471L993.864 137.621C995.901 133.249 1000.12 130.295 1004.92 129.873L1217.95 111.155Z" stroke="#B3E6E9" stroke-width="3"/>
<defs>
<linearGradient id="paint0_linear_15590_256" x1="719.5" y1="0" x2="719.5" y2="846" gradientUnits="userSpaceOnUse">
<stop stop-color="#00ADB5" stop-opacity="0.12"/>
<stop offset="1" stop-color="#00ADB5" stop-opacity="0"/>
</linearGradient>
</defs>
</svg>
